<?xml version="1.0" standalone="no"?>
<!DOCTYPE svg PUBLIC "-//W3C//DTD SVG 1.1//EN" "http://www.w3.org/Graphics/SVG/1.1/DTD/svg11.dtd" >
<svg xmlns="http://www.w3.org/2000/svg">
<metadata>
This is a custom SVG webfont generated by Fontspring.
Designer    : FontSite.com
Foundry URL : http://www.fontsite.com
</metadata>
<defs>
<font id="webfont" horiz-adv-x="500" >
<font-face units-per-em="1000" ascent="786" descent="-214" />
<missing-glyph horiz-adv-x="250" />
<glyph unicode=" "  horiz-adv-x="250" />
<glyph unicode="&#x09;" horiz-adv-x="250" />
<glyph unicode="&#xa0;" horiz-adv-x="250" />
<glyph unicode="!" horiz-adv-x="295" d="M118 234l-34 234v199h154v-199l-40 -234h-80zM83 0v161h155v-161h-155z" />
<glyph unicode="&#x22;" horiz-adv-x="311" d="M206 400l-14 267h99l-14 -267h-71zM33 400l-14 267h100l-15 -267h-71z" />
<glyph unicode="#" d="M73 0l33 210h-83l11 69h83l17 109h-83l11 69h83l33 210h78l-33 -210h98l33 210h79l-34 -210h80l-11 -69h-80l-17 -109h83l-11 -69h-83l-33 -210h-78l33 210h-98l-34 -210h-77zM195 279h98l17 109h-98z" />
<glyph unicode="$" d="M42 -6v226h107q1 -58 17 -83q27 -42 79 -42q33 0 54.5 19.5t21.5 50.5q0 41 -39 71q-20 15 -98 51q-81 37 -119 86t-38 116q0 81 47.5 131t126.5 53v63h77v-79q25 -13 50 -41l-4 51h107q0 -39 1 -45v-58q0 -15 0.5 -37.5t0.5 -29.5v-37h-109q-1 42 -17 63q-27 37 -81 37 q-27 0 -45.5 -16.5t-18.5 -41.5q0 -27 20.5 -44.5t95.5 -54.5q64 -32 94.5 -52.5t55.5 -48.5q44 -52 44 -121q0 -84 -51 -140t-128 -56h-15v-81h-77v101q-20 11 -53 38l3 -49h-109z" />
<glyph unicode="%" horiz-adv-x="661" d="M140 -4l330 697l48 -24l-329 -696zM155 327q-59 0 -90.5 45t-31.5 130q0 172 124 172q58 0 89 -44t31 -127q0 -85 -31.5 -130.5t-90.5 -45.5zM155 389q34 0 34 116q0 57 -7.5 81t-26.5 25t-27 -23t-8 -84q0 -115 35 -115zM383 168q0 172 124 172q58 0 89 -44t31 -127 q0 -85 -31.5 -130.5t-90.5 -45.5t-90.5 45t-31.5 130zM470 170q0 -115 35 -115q34 0 34 116q0 57 -7.5 81t-26.5 25t-27 -23t-8 -84z" />
<glyph unicode="&#x26;" horiz-adv-x="745" d="M31 198q0 80 63 144q42 42 114 72q-53 64 -53 126q0 64 50 105.5t126 41.5t126 -41t50 -103q0 -45 -33 -84q-16 -19 -60 -51q-1 0 -4 -2t-7.5 -5.5t-7.5 -5.5l96 -122l13 19q35 52 62 119q49 -1 58 -1h54q10 0 20 1h20v-106h-83q-33 -70 -73 -122l60 -77l95 4v-110h-60 h-60h-71l-57 77q-56 -51 -104 -72.5t-106 -21.5q-97 0 -162.5 62t-65.5 153zM329 481q33 20 45 35t12 36q0 20 -13 32.5t-34 12.5q-22 0 -35.5 -12t-13.5 -31q0 -25 39 -73zM180 227q0 -43 34.5 -77.5t76.5 -34.5q49 0 107 52l-129 166q-50 -29 -69.5 -52t-19.5 -54z" />
<glyph unicode="'" horiz-adv-x="138" d="M33 400l-14 267h100l-15 -267h-71z" />
<glyph unicode="(" horiz-adv-x="333" d="M160 -126q-130 152 -130 363t130 363q32 37 62.5 55.5t75.5 28.5v-104q-49 -25 -69 -72q-44 -99 -44 -271t44 -271q21 -49 69 -72v-104q-45 10 -75 28.5t-63 55.5z" />
<glyph unicode=")" horiz-adv-x="333" d="M105 -34q44 99 44 271t-44 271q-20 47 -69 72v104q45 -10 75.5 -28.5t62.5 -55.5q130 -152 130 -363t-130 -363q-32 -37 -62.5 -55.5t-75.5 -28.5v104q48 23 69 72z" />
<glyph unicode="*" d="M178 266l-95 68l107 111l-151 26l36 111l139 -67l-24 152h116l-21 -153l140 70l36 -111l-151 -27l107 -112l-95 -69l-73 136z" />
<glyph unicode="+" d="M202 135v157h-147v96h147v157h96v-157h146v-96h-146v-157h-96z" />
<glyph unicode="," horiz-adv-x="255" d="M50 0v162h157v-162q0 -89 -49 -130q-33 -26 -108 -29v73h5q63 0 65 86h-70z" />
<glyph unicode="-" horiz-adv-x="227" d="M0 182v117h227v-117h-227z" />
<glyph unicode="." horiz-adv-x="255" d="M50 0v161h155v-161h-155z" />
<glyph unicode="/" horiz-adv-x="418" d="M-33 -193l334 860h109l-334 -860h-109z" />
<glyph unicode="0" d="M250 -13q-112 0 -171.5 89.5t-59.5 259.5q0 344 234 344q111 0 169 -87.5t58 -254.5q0 -190 -75 -282q-58 -69 -155 -69zM206 130q20 -26 44 -26q38 0 55.5 57t17.5 183q0 119 -16 168t-56 51q-41 2 -58 -48.5t-17 -174.5q0 -168 30 -210z" />
<glyph unicode="1" d="M98 -1v111l92 -1v392q-52 -9 -99 -10v114q137 -3 175 78h77v-574l92 1v-111q-74 1 -94 1h-145q-1 0 -16.5 -0.5t-29.5 -0.5h-52z" />
<glyph unicode="2" d="M21 -2q11 123 48.5 195.5t132.5 152.5q59 49 79 80t20 71q0 32 -16.5 51t-45.5 19q-32 0 -49.5 -27t-17.5 -77q0 -5 2 -35l-139 6q2 63 14 102t40 71q61 73 163 73q88 0 147 -54.5t59 -134.5q0 -59 -33 -108q-17 -24 -39 -44.5t-71 -56.5q-71 -52 -103.5 -90t-42.5 -82 h180l3 88l115 -1q-4 -62 -7 -199q-31 0 -59 0.5t-41 1t-16 0.5h-201q-16 0 -122 -2z" />
<glyph unicode="3" d="M63 62q-23 26 -34 56.5t-15 82.5l129 20v-7q0 -51 22.5 -80.5t61.5 -29.5t60.5 25.5t21.5 71.5q0 40 -23.5 66.5t-59.5 26.5q-3 0 -23 -2l-18 -1v118q8 -1 19 -1q89 0 89 83q0 34 -17 53t-46 19q-34 0 -50 -21t-21 -71l-132 12q10 90 53 136q58 61 161 61q88 0 144.5 -49 t56.5 -125q0 -108 -96 -155q120 -41 120 -158q0 -88 -65.5 -147t-163.5 -59q-108 0 -174 75z" />
<glyph unicode="4" d="M37 179l-37 100l273 397h136v-402h64v-95h-64v-70l61 1v-112q-62 2 -85 2h-107q-29 0 -93 -2v112l81 -1v70h-229zM115 274h152l2 241z" />
<glyph unicode="5" d="M72 57q-36 42 -51 124l134 15q6 -49 24.5 -70.5t55.5 -21.5q40 0 62.5 28t22.5 78t-22 79.5t-59 29.5q-51 0 -77 -56l-109 57l17 348h69q14 0 30.5 -0.5t17.5 -0.5h179q25 0 83 2v-36v-52v-52v-33h-103v61h-172l-8 -161q64 40 122 40q82 0 136 -61.5t54 -154.5 q0 -103 -65.5 -168t-169.5 -65q-112 0 -171 70z" />
<glyph unicode="6" d="M267 -13q-112 0 -174.5 88t-62.5 247q0 170 65.5 264t183.5 94q108 0 160 -73q27 -37 44 -112l-135 -14q-14 82 -70 82q-85 0 -94 -175q54 42 115 42q80 0 129.5 -57.5t49.5 -149.5q0 -106 -58 -171t-153 -65zM266 107q33 0 52 27t19 74q0 52 -22 81t-61 29 q-33 0 -73 -32v-9v-5q0 -86 20.5 -125.5t64.5 -39.5z" />
<glyph unicode="7" d="M56 -2l-1 112l92 -1q21 219 172 448h-169l1 -104h-111v64v9t-0.5 14t-0.5 32.5v59.5v37q45 -2 101 -2h200q40 0 120 2v-95q-68 -86 -112 -217t-44 -248l86 1v-112q-92 2 -106 2h-127q-28 0 -59 -1q-24 0 -42 -1z" />
<glyph unicode="8" d="M17 188q0 103 103 159q-90 56 -90 149q0 82 61.5 133t161.5 51q95 0 153 -48t58 -127q0 -50 -21 -86t-69 -67q60 -32 85 -69.5t25 -95.5q0 -94 -60.5 -147t-168.5 -53q-110 0 -174 53.5t-64 147.5zM247 401q32 0 52 23t20 61q0 37 -19.5 59.5t-51.5 22.5q-34 0 -53.5 -22 t-19.5 -60t20 -61t52 -23zM162 205q0 -45 24.5 -73t64.5 -28q39 0 63.5 28t24.5 73q0 41 -23.5 66t-63.5 25q-42 0 -66 -24t-24 -67z" />
<glyph unicode="9" d="M52 75q-22 39 -35 96l136 16q8 -44 25 -63.5t46 -19.5q43 0 65 42t28 137q-54 -46 -118 -46q-79 0 -128.5 57.5t-49.5 149.5q0 106 58 171t153 65q114 0 176 -87t62 -247q0 -188 -82 -287q-28 -34 -72.5 -53t-94.5 -19q-117 0 -169 88zM242 350q37 0 76 32q0 42 -3 87 q-5 47 -25.5 72.5t-53.5 25.5q-70 0 -70 -105q0 -50 21 -81t55 -31z" />
<glyph unicode=":" horiz-adv-x="282" d="M77 310v161h155v-161h-155zM77 0v161h155v-161h-155z" />
<glyph unicode=";" horiz-adv-x="282" d="M50 310v161h155v-161h-155zM50 0v162h157v-162q0 -89 -49 -130q-33 -26 -108 -29v73h5q63 0 65 86h-70z" />
<glyph unicode="&#x3c;" d="M39 365v9l423 263v-67l-241 -152l241 -164v-179z" />
<glyph unicode="=" d="M52 372v89h396v-89h-396zM59 225v89h389v-89h-389z" />
<glyph unicode="&#x3e;" d="M39 75v67l241 152l-241 165v178l423 -290v-9z" />
<glyph unicode="?" horiz-adv-x="513" d="M197 230l-10 190q32 -16 63 -16q35 0 60.5 26t25.5 62t-25 60.5t-62 24.5t-59 -20.5t-21 -55.5l1 -28h-143q0 63 17 98q25 52 83 81.5t134 29.5q102 0 164 -55t62 -145q0 -81 -48.5 -129.5t-129.5 -48.5h-21l-13 -74h-78zM157 0v161h155v-161h-155z" />
<glyph unicode="@" horiz-adv-x="724" d="M123 -3q-49 48 -76.5 113.5t-27.5 136.5q0 148 103.5 249t255.5 101q139 0 232.5 -85t93.5 -213q0 -96 -53 -168.5t-123 -72.5q-31 0 -52 17t-22 45q-45 -66 -122 -66q-62 0 -102.5 46.5t-40.5 117.5q0 84 52 144.5t125 60.5q79 0 109 -76l13 64h56l-41 -211 q-6 -27 -6 -42q-1 -18 9.5 -30t27.5 -12q43 0 76 54.5t33 125.5q0 106 -74 174.5t-190 68.5q-125 0 -210 -84.5t-85 -208.5q0 -121 81 -204q81 -84 220 -84q110 0 207 45l17 -57q-101 -46 -223 -46q-165 0 -263 97zM258 219q0 -46 24 -74.5t63 -28.5q45 0 76.5 43.5 t31.5 106.5q0 43 -22 68.5t-59 25.5q-47 0 -80.5 -41.5t-33.5 -99.5z" />
<glyph unicode="A" horiz-adv-x="725" d="M-3 -2l1 116l71 -2l152 445l-88 -1v113q114 -2 187 -2h93q77 0 187 2v-113l-86 1l145 -445l70 1l-2 -115q-73 2 -96 2h-101q-36 0 -118 -2v116l82 -2l-37 124h-186l-38 -124l81 2v-116q-18 1 -45 1l-68 1h-114q-54 0 -90 -2zM301 331h129l-63 214z" />
<glyph unicode="B" horiz-adv-x="642" d="M30 -2v116l77 -2v443l-77 -2v116q18 -1 37 -1q20 -1 40 -1h91l134 1q76 1 120 -8.5t75 -32.5q29 -20 45.5 -56t16.5 -76q0 -100 -99 -143q122 -46 122 -158q0 -50 -21.5 -92.5t-59.5 -66.5q-66 -41 -179 -38l-161 3h-84q-20 0 -40 -1q-19 0 -37 -1zM277 399q50 0 68 2.5 t32 10.5q35 18 35 67q0 39 -22.5 57t-71.5 18q-24 0 -41 -1v-154zM277 112h36q74 0 96 25q18 19 18 59q0 50 -22.5 72t-74.5 21l-53 -1v-176z" />
<glyph unicode="C" horiz-adv-x="726" d="M276 154q49 -49 121 -49q68 0 113.5 48.5t55.5 131.5l134 -68q-31 -112 -113.5 -172t-204.5 -60q-155 0 -252 97t-97 251q0 153 97.5 251t249.5 98q116 0 186 -69v52h111q0 -11 -0.5 -26t-1 -24t-0.5 -13l-2 -78q0 -26 3 -94h-118q-17 56 -46 85q-48 46 -120 46 q-80 0 -127 -62.5t-47 -169.5q0 -117 58 -175z" />
<glyph unicode="D" horiz-adv-x="745" d="M30 -2v116l77 -2v443l-77 -2v116q16 -1 37 -1q20 -1 40 -1h117q166 0 232.5 -9.5t116.5 -41.5q67 -44 103 -118.5t36 -170.5q0 -188 -125 -274q-84 -59 -213 -56l-140 3h-127q-20 0 -40 -1q-21 0 -37 -1zM277 110l45 -1q89 -1 132 28q34 24 53.5 73.5t19.5 114.5 q0 80 -28 135t-80 77q-41 17 -114 17q-16 0 -28 -1v-443z" />
<glyph unicode="E" horiz-adv-x="630" d="M30 -2v116l77 -2v445l-77 -3v115q16 -1 37 -1q20 -1 40 -1h360q73 0 123 2v-51v-62l1 -76q0 -16 -1 -34h-129l4 111h-188v-165h159v-110h-159v-172h186l-4 104h129v-111v-28v-77q-21 1 -51 1q-34 1 -67 1h-363q-20 0 -40 -1q-21 0 -37 -1z" />
<glyph unicode="F" horiz-adv-x="610" d="M30 -2v116l77 -2v445l-77 -3v115q18 -1 39 -1q19 -1 38 -1h326q89 0 155 2v-31l1 -184h-127l5 103h-190v-163h144v-110h-144v-172l89 2v-116q-15 1 -37 1q-19 1 -39 1h-184q-16 0 -34 -1q-23 0 -42 -1z" />
<glyph unicode="G" horiz-adv-x="770" d="M276 157q50 -52 136 -52q118 0 149 120h-119v110h305v-14q0 -138 -71 -222q-46 -54 -121.5 -84t-164.5 -30q-159 0 -258 94.5t-99 245.5q0 159 98 258t255 99q121 0 197 -64l-2 49h116q-5 -90 -5 -119q0 -30 5 -115h-121q-19 56 -52 84q-53 45 -128 45q-80 0 -129 -61 t-49 -161q0 -123 58 -183z" />
<glyph unicode="H" horiz-adv-x="736" d="M30 -2v116l77 -2v443l-77 -2v116q16 -1 37 -1q20 -1 40 -1h157q20 0 39 1q21 0 37 1v-115l-63 1v-149h182v149l-63 -1v115q17 -1 37 -1q19 -1 39 -1h157q20 0 40 1q21 0 37 1v-116l-77 2v-443l77 2v-116q-16 1 -37 1q-20 1 -40 1h-157q-20 0 -39 -1q-19 0 -37 -1v115 l63 -1v184h-182v-184l63 1v-115q-15 1 -37 1q-19 1 -39 1h-157q-20 0 -40 -1q-21 0 -37 -1z" />
<glyph unicode="I" horiz-adv-x="383" d="M30 -2v116l77 -2v443l-77 -2v116q18 -1 37 -1q20 -1 40 -1h170q20 0 39 1q20 0 37 1v-116l-76 2v-443l76 2v-116q-17 1 -37 1q-19 1 -39 1h-170q-20 0 -40 -1q-19 0 -37 -1z" />
<glyph unicode="J" horiz-adv-x="377" d="M-14 -60q23 -9 42 -9q39 0 61 27q11 14 14.5 31.5t3.5 58.5v507l-77 -1v115q17 -1 37 -1q17 -1 33 -1h184q15 0 32 1q20 0 37 1v-115l-76 1v-511q0 -70 -6 -100t-26 -60q-25 -38 -72 -60t-101 -22q-32 0 -86 11v127z" />
<glyph unicode="K" horiz-adv-x="758" d="M401 -2v116l75 -2l-187 234l200 209l-74 -2v116q71 -2 92 -2h133q28 0 81 2v-116l-85 2l-177 -182l209 -261l69 1v-115q-64 2 -96 2h-138q-32 0 -102 -2zM30 -2v116l77 -2v443l-77 -2v116q18 -1 37 -1q20 -1 40 -1h170q20 0 39 1q20 0 37 1v-116l-76 2v-443l76 2v-116 q-17 1 -37 1q-19 1 -39 1h-170q-20 0 -40 -1q-19 0 -37 -1z" />
<glyph unicode="L" horiz-adv-x="614" d="M30 -2v116l77 -2v443l-77 -2v116q18 -1 37 -1q20 -1 40 -1h170q20 0 39 1q21 0 37 1v-116l-76 2v-445h195v35q0 12 -0.5 32.5t-0.5 29.5v63v42h119q-5 -152 -5 -231q0 -27 3 -83q-91 2 -151 2h-330q-20 0 -40 -1q-19 0 -37 -1z" />
<glyph unicode="M" horiz-adv-x="994" d="M30 -2v116l77 -2v443l-77 -2v116q18 -1 37 -1q20 -1 40 -1h137q12 0 87 2l160 -413l161 413q90 -2 110 -2h125q21 0 40 1q19 0 37 1v-116l-77 2v-443l77 2v-116q-18 1 -37 1q-19 1 -40 1h-170q-20 0 -39 -1q-21 0 -37 -1v116l76 -2v439l-216 -551h-68l-214 554v-442l76 2 v-116q-16 1 -36 1q-19 1 -40 1h-112q-20 0 -40 -1q-19 0 -37 -1z" />
<glyph unicode="N" horiz-adv-x="746" d="M30 -2v116l77 -2v443l-77 -2v116q16 -1 37 -1q20 -1 40 -1h62l126 1l239 -420v307l-73 -2v116q16 -1 37 -1q18 -1 35 -1h113q20 0 40 1q21 0 37 1v-116l-77 2v-555h-143l-284 497v-385l76 2v-116q-16 1 -36 1q-19 1 -40 1h-112q-20 0 -40 -1q-21 0 -37 -1z" />
<glyph unicode="O" horiz-adv-x="782" d="M33 327q0 172 109 266q102 89 256 89t252 -97t98 -250q0 -159 -98.5 -254.5t-262.5 -95.5q-159 0 -256.5 94t-97.5 248zM218 330q0 -104 46.5 -164.5t127.5 -60.5q80 0 125.5 60t45.5 166q0 108 -45.5 169.5t-125.5 61.5q-82 0 -128 -61.5t-46 -170.5z" />
<glyph unicode="P" horiz-adv-x="631" d="M30 -2v116l77 -2v443l-77 -2v116q16 -1 37 -1q20 -1 40 -1h114h62q13 0 33 0.5t28 0.5q136 0 204 -57q67 -56 67 -158q0 -128 -109 -186q-57 -30 -161 -30q-8 0 -68 2v-127l83 2v-116q-17 1 -37 1q-19 1 -39 1h-177q-20 0 -40 -1q-21 0 -37 -1zM277 348q15 -1 34 -1 q64 0 94.5 25.5t30.5 79.5q0 52 -28.5 76t-88.5 24q-23 0 -42 -1v-203z" />
<glyph unicode="Q" horiz-adv-x="782" d="M109 107q-76 93 -76 225q0 157 99.5 253.5t261.5 96.5q157 0 256 -96t99 -247q0 -81 -31 -151.5t-87 -118.5q-39 -33 -79.5 -50t-99.5 -25q49 -28 71.5 -35.5t52.5 -7.5q26 0 57 7l-36 -107q-17 -3 -25 -3q-61 0 -135 41q-75 40 -119 40q-26 0 -46.5 -9t-48.5 -33l-55 68 q24 19 43 28t59 20q-57 20 -93.5 43.5t-67.5 60.5zM218 330q0 -103 47 -163.5t127 -60.5t126 60t46 165q0 108 -46 169.5t-126 61.5q-82 0 -128 -61.5t-46 -170.5z" />
<glyph unicode="R" horiz-adv-x="689" d="M30 -2v115l77 -1v443l-77 -2v116q16 -1 37 -1q20 -1 40 -1h125q143 0 173.5 -1t67.5 -8q62 -11 102 -62t40 -119q0 -112 -113 -172l105 -193l75 1v-115q-48 2 -61 2h-51q-22 0 -45 -1q-21 0 -38 -1l-146 285h-64v-171l74 1v-115q-16 1 -36 1q-19 1 -38 1h-170 q-20 0 -40 -1q-21 0 -37 -1zM277 396q21 -1 51 -1q56 0 81 19t25 62q0 40 -25 58.5t-79 18.5q-31 0 -53 -1v-156z" />
<glyph unicode="S" horiz-adv-x="529" d="M56 0q2 82 2 135q0 10 -2 90h113q0 -53 16 -78q24 -42 74 -42q32 0 55 21t23 52q0 38 -31 62q-18 13 -113 59q-90 44 -121 88q-32 44 -32 106q0 82 50 135.5t127 53.5q74 0 128 -53l-3 40h114v-38l-1 -66q0 -8 1 -95h-112q-4 32 -7.5 44t-13.5 23q-30 33 -78 33 q-26 0 -43 -16.5t-17 -41.5q0 -27 17.5 -44.5t65.5 -39.5q134 -60 170 -95q57 -57 57 -144q0 -88 -53.5 -146t-133.5 -58q-78 0 -140 61l3 -46h-115z" />
<glyph unicode="T" horiz-adv-x="622" d="M133 -2v116l93 -2v439h-90l2 -154h-118q3 77 3 191q0 45 -1 81q81 -2 195 -2h200q123 0 185 2q-2 -63 -2 -123q0 -43 2 -149h-119l4 154h-91v-439l93 2v-116q-17 1 -37 1q-19 1 -39 1h-204q-19 0 -39 -1q-21 0 -37 -1z" />
<glyph unicode="U" horiz-adv-x="665" d="M151 52q-54 57 -54 162v341l-77 -2v116q16 -1 37 -1q20 -1 40 -1h157q20 0 39 1q21 0 37 1v-115l-63 1v-342q0 -56 21.5 -82t68.5 -26q48 0 73 28q23 27 23 96v326l-64 -1v115q17 -1 38 -1q19 -1 39 -1h102q20 0 40 1q21 0 37 1v-116l-77 2v-341q0 -70 -16.5 -111.5 t-56.5 -70.5q-63 -47 -163 -47q-117 0 -181 67z" />
<glyph unicode="V" horiz-adv-x="664" d="M264 -3l-195 558l-72 -2v116q40 -2 97 -2h106q31 0 110 2v-116l-74 2l105 -333l99 333l-74 -2v116q45 -2 119 -2h84q23 0 47 1q28 0 51 1v-116l-71 2l-191 -558h-141z" />
<glyph unicode="W" horiz-adv-x="951" d="M244 0l-178 555l-69 -1v115q45 -2 107 -2h75q67 0 114 2v-115l-66 1l93 -325l104 325l-60 -1v115q81 -2 96 -2h60q26 0 95 2v-115l-59 1l98 -322l100 322l-67 -1v115q43 -2 103 -2h83q48 0 82 2v-116l-70 2l-179 -555h-132l-99 307l-98 -307h-133z" />
<glyph unicode="X" horiz-adv-x="736" d="M13 -2l1 115l94 -1l161 228l-155 215l-92 -1v115q65 -2 102 -2h100q61 0 142 2v-115l-58 1l80 -111l78 111l-57 -1v115q48 -2 105 -2h75q69 0 117 2v-115l-89 1l-151 -218l162 -225l94 1v-115q-48 2 -78 2h-146q-38 0 -117 -2v115l54 -1l-85 121l-87 -121l53 1v-115 q-39 2 -94 2h-129q-46 0 -80 -2z" />
<glyph unicode="Y" horiz-adv-x="656" d="M155 -2v116l87 -2v181l-162 262l-83 -1v115q39 -2 105 -2h95l83 1q22 0 38 1v-115l-57 1l91 -153l90 153l-58 -1v115q52 -2 115 -2h63q65 0 98 2v-115l-74 1l-174 -265v-178l86 2v-116q-16 1 -37 1q-19 1 -39 1h-190q-20 0 -40 -1q-21 0 -37 -1z" />
<glyph unicode="Z" horiz-adv-x="560" d="M14 -2v107l304 452h-173l4 -128h-113q1 61 1 83l-1 157q89 -2 133 -2h250q31 0 109 2v-100l-310 -459h202l-4 130h113q-1 -42 -1 -79q0 -106 1 -163q-46 2 -126 2h-287q-24 0 -102 -2z" />
<glyph unicode="[" horiz-adv-x="333" d="M61 -193v860h234v-101h-99v-658h99v-101h-234z" />
<glyph unicode="\" horiz-adv-x="418" d="M341 -193l-334 860h109l334 -860h-109z" />
<glyph unicode="]" horiz-adv-x="333" d="M38 -92h100v658h-100v101h235v-860h-235v101z" />
<glyph unicode="^" d="M-31 277l290 423h9l263 -423h-67l-152 241l-164 -241h-179z" />
<glyph unicode="_" d="M0 -92h500v-80h-500v80z" />
<glyph unicode="`" d="M243 540l-130 143h125l86 -143h-81z" />
<glyph unicode="a" horiz-adv-x="550" d="M36 146q0 67 49.5 109.5t128.5 42.5q59 0 113 -24v31q0 78 -82 78q-55 0 -77 -42l-130 23q35 62 87.5 89t137.5 27q83 0 137 -30q55 -32 67 -91q4 -20 4 -65v-189l67 2v-108q-60 1 -67 1h-95q-14 0 -49 -1v41q-58 -50 -128 -50q-71 0 -117 44t-46 112zM185 151 q0 -25 15.5 -40.5t40.5 -15.5q32 0 86 41v41q-53 29 -84 29q-25 0 -41.5 -15.5t-16.5 -39.5z" />
<glyph unicode="b" horiz-adv-x="574" d="M13 -1v108l67 -2v456l-67 -1v108q60 -1 67 -1h55q31 0 92 1v-250q32 34 60.5 48t66.5 14q85 0 139.5 -69.5t54.5 -179.5q0 -104 -53.5 -172.5t-135.5 -68.5q-77 0 -132 63v-54q-74 1 -93 1h-54q-11 0 -67 -1zM226 232q0 -53 25 -87.5t63 -34.5q37 0 59 32t22 88t-23 90.5 t-61 34.5q-40 0 -62.5 -33t-22.5 -90z" />
<glyph unicode="c" horiz-adv-x="535" d="M26 239q0 101 68 171t165 70q68 0 130 -42l-2 32h110q-1 -54 -1 -93q0 -35 1 -106h-112q-22 81 -101 81q-49 0 -77 -31t-28 -85t28.5 -88t74.5 -34q69 0 105 83l125 -58q-20 -38 -37.5 -59t-43.5 -40q-69 -50 -154 -50q-105 0 -178 72.5t-73 176.5z" />
<glyph unicode="d" horiz-adv-x="577" d="M218 -10q-83 0 -137 69.5t-54 176.5q0 104 55 174t137 70q74 0 130 -62v143l-67 -1v108q60 -1 67 -1h51q32 0 96 1v-563l66 2v-108q-59 1 -66 1h-56q-16 0 -91 -1v54q-53 -63 -131 -63zM261 110q40 0 64.5 33.5t24.5 88.5q0 57 -22.5 90t-61.5 33q-41 0 -63.5 -33.5 t-22.5 -93.5q0 -55 21.5 -86.5t59.5 -31.5z" />
<glyph unicode="e" horiz-adv-x="520" d="M27 228q0 112 65.5 182t171.5 70q104 0 169 -69t61 -179l-1 -31h-325q8 -104 102 -104q35 0 56.5 13t41.5 46l123 -39q-70 -127 -228 -127q-107 0 -171.5 64.5t-64.5 173.5zM169 284h175q-12 88 -88 88q-75 0 -87 -88z" />
<glyph unicode="f" horiz-adv-x="341" d="M22 -1v108l67 -2v260l-65 -2v109l65 -2v50q0 76 47 120.5t128 44.5q50 0 85.5 -18.5t67.5 -59.5l-113 -72q-17 47 -43 47q-25 0 -25 -43v-69l74 2v-109l-74 1v-259l67 2v-108q-51 1 -64 1h-153q-14 0 -64 -1z" />
<glyph unicode="g" horiz-adv-x="580" d="M130 -44q68 -30 119 -30q109 0 109 117v17q-60 -59 -141 -59q-83 0 -135.5 67t-52.5 173q0 103 55 171t138 68q38 0 65.5 -13.5t64.5 -49.5l-2 54q66 -1 89 -1h62q11 0 67 1v-107l-67 1v-317q0 -121 -52 -172q-61 -61 -186 -61q-107 0 -201 55zM266 110q40 0 63 32.5 t23 89.5q0 58 -23 93t-61 35q-41 0 -63.5 -33t-22.5 -91q0 -57 23 -91.5t61 -34.5z" />
<glyph unicode="h" horiz-adv-x="573" d="M15 -1v108l67 -2v456l-67 -1v108q60 -1 67 -1h70q1 0 13.5 0.5t24.5 0.5h39v-240q62 52 125 52q64 0 102 -39t38 -105v-231l66 2v-108q-59 1 -66 1h-59q-1 0 -16 -0.5t-29 -0.5h-43v283q0 40 -9.5 55.5t-34.5 15.5q-30 0 -74 -33v-215l67 2v-108q-60 1 -67 1h-147 q-11 0 -67 -1z" />
<glyph unicode="i" horiz-adv-x="321" d="M168 516q-35 0 -60 25t-25 61q0 34 25.5 59t60.5 25q34 0 59 -25t25 -60t-25 -60t-60 -25zM22 -1v108l67 -2v260l-67 -1v107q60 -1 67 -1h74h6t14 0.5t18 0.5h35v-366l67 2v-108q-60 1 -67 1h-147q-11 0 -67 -1z" />
<glyph unicode="j" horiz-adv-x="298" d="M161 517q-36 0 -61 25.5t-25 60.5t25.5 60t61.5 25q34 0 59 -25t25 -60t-25 -60.5t-60 -25.5zM-15 -74q11 -2 24 -2q50 0 68 28q9 15 9 69v344l-67 -1v107q60 -1 67 -1h44q34 0 103 1v-450q0 -71 -5.5 -99.5t-23.5 -53.5q-48 -64 -165 -64q-30 0 -54 3v119z" />
<glyph unicode="k" horiz-adv-x="605" d="M15 -1v108l67 -2v456l-67 -1v108q60 -1 67 -1h47q30 0 100 1v-420l143 130l-87 -2v95h44q13 0 27.5 -0.5t15.5 -0.5h88q1 0 18 0.5t33 0.5h67v-96l-54 1l-135 -125l120 -146l76 2v-108q-78 1 -96 1q-33 0 -65 -1l-195 234v-128l60 2v-108q-60 1 -67 1h-140q-11 0 -67 -1z " />
<glyph unicode="l" horiz-adv-x="311" d="M15 -1v108l67 -2v457l-67 -2v108q60 -1 67 -1h52q26 0 95 1v-563l67 2v-108q-60 1 -67 1h-147q-11 0 -67 -1z" />
<glyph unicode="m" horiz-adv-x="838" d="M22 -1v108l67 -2v260l-67 -1v107q60 -1 67 -1h63q20 0 84 1v-44q66 53 128 53q74 0 116 -66q69 66 150 66q50 0 87 -34q23 -23 32.5 -49t9.5 -69v-223l67 2v-108q-60 1 -67 1h-74h-11q-12 0 -22 -1h-40v297q0 54 -40 54q-33 0 -74 -34v-211l67 2v-108q-60 1 -67 1h-60 q-12 0 -87 -1v282q0 38 -7 50q-9 18 -34 18q-40 0 -74 -31v-213l67 2v-108q-60 1 -67 1h-147q-11 0 -67 -1z" />
<glyph unicode="n" horiz-adv-x="579" d="M22 -1v108l67 -2v260l-67 -1v108q48 -2 66 -2h51q51 0 97 1v-45q63 54 132 54q62 0 97.5 -39t35.5 -109v-227l66 2v-108q-59 1 -66 1h-57q-1 0 -18 -0.5t-32 -0.5h-40v296q0 54 -44 54q-38 0 -74 -34v-210l67 2v-108q-60 1 -67 1h-147q-11 0 -67 -1z" />
<glyph unicode="o" horiz-adv-x="532" d="M26 236q0 106 68.5 175t174.5 69q102 0 170 -70t68 -174q0 -105 -69 -175.5t-171 -70.5q-103 0 -172 70.5t-69 175.5zM267 110q40 0 63.5 33.5t23.5 89.5q0 59 -23 93t-63 34q-42 0 -65.5 -34t-23.5 -93q0 -56 24 -89.5t64 -33.5z" />
<glyph unicode="p" horiz-adv-x="572" d="M12 -87l67 -1v453l-67 -1v108q49 -2 66 -2h49q58 0 99 1v-54q52 63 131 63q82 0 135.5 -69.5t53.5 -175.5t-55 -175.5t-138 -69.5q-38 0 -67 13.5t-60 46.5v-138l67 1v-107q-53 1 -64 1h-146q-1 0 -14 -0.5t-23 -0.5h-34v107zM225 232q0 -56 22 -87t62 -31q39 0 61 34 t22 94q0 53 -21.5 85.5t-57.5 32.5q-35 0 -59 -27q-29 -33 -29 -101z" />
<glyph unicode="q" horiz-adv-x="573" d="M224 -10q-87 0 -142.5 68t-55.5 175q0 106 53 176.5t133 70.5q77 0 135 -66v57q74 -1 87 -1h60q11 0 67 1v-107l-67 1v-453l67 1v-107q-60 1 -67 1h-147q-11 0 -67 -1v107l67 -1v135q-53 -57 -123 -57zM262 110q39 0 63 33t24 87q0 55 -24.5 89t-64.5 34 q-38 0 -59.5 -31.5t-21.5 -87.5q0 -57 22.5 -90.5t60.5 -33.5z" />
<glyph unicode="r" horiz-adv-x="416" d="M22 -1v108l67 -2v260l-67 -2v108q60 -1 67 -1h51q42 0 85 1v-114q32 68 71 96t102 29v-144h-14q-91 0 -127 -71q-21 -43 -21 -130v-32l87 2v-108q-60 1 -67 1h-167q-11 0 -67 -1z" />
<glyph unicode="s" horiz-adv-x="479" d="M48 -1v90v81h113v-10q0 -36 31 -54q27 -16 64 -16q33 0 53 12t20 31q0 18 -16 29q-17 10 -102 25q-97 17 -135 49q-46 38 -46 98q0 63 49 104.5t123 41.5q62 0 107 -30l11 21h104v-26v-44v-48v-27h-110q-13 52 -97 52q-62 0 -62 -32q0 -14 13 -23q15 -8 106 -23 q95 -15 139 -51.5t44 -99.5q0 -70 -51.5 -114.5t-131.5 -44.5q-56 0 -112 28l-2 -19h-112z" />
<glyph unicode="t" horiz-adv-x="335" d="M100 27q-28 28 -28 82v256l-57 -1v108l60 -2v56l144 126v-182l85 2v-108l-85 1v-198q0 -28 9 -40t31 -12q24 0 51 14v-114q-44 -25 -104 -25q-69 0 -106 37z" />
<glyph unicode="u" horiz-adv-x="573" d="M79 143v222l-67 -1v107q60 -1 67 -1h56q21 0 91 1v-285q0 -37 10.5 -51.5t36.5 -14.5q38 0 71 33v212l-67 -1v107q60 -1 67 -1h59q54 0 88 1v-366l66 2v-108q-59 1 -66 1h-59l-51 -1h-18h-19v46q-60 -55 -129 -55q-62 0 -99 41.5t-37 111.5z" />
<glyph unicode="v" horiz-adv-x="545" d="M210 -1l-148 366l-68 -1v108q61 -2 82 -2h105q50 0 87 1v-108l-58 2l74 -225l84 225l-56 -2v108q66 -1 73 -1h103q41 0 65 2v-108l-67 1l-145 -366h-131z" />
<glyph unicode="w" horiz-adv-x="779" d="M177 -1l-120 366l-64 -1v107q31 -1 81 -1h94q22 0 82 1v-108l-49 2l52 -202l89 308q43 -1 64 -1q19 0 65 1l88 -308l54 202l-54 -2v108q30 -1 64 -1h98q17 0 65 2v-108l-61 1l-114 -366h-134l-83 301l-87 -301h-130z" />
<glyph unicode="x" horiz-adv-x="520" d="M9 -1v108l64 -2l99 123l-98 137l-65 -1v107h34q11 0 24.5 -0.5t14.5 -0.5h34q1 0 15 0.5t26 0.5h26l82 -137l91 137q42 -1 48 -1h40q18 0 52 1v-107l-64 1l-86 -117l99 -143l67 2v-108h-27q-9 0 -19 0.5t-11 0.5h-59q-14 0 -59 -1l-90 144l-97 -144l-2 -1h-5h-13 q-6 0 -20 1t-20 1h-27l-38 -1h-13h-3z" />
<glyph unicode="y" horiz-adv-x="548" d="M97 -92l96 -1l37 92l-168 366l-69 -1v108q33 -2 75 -2h114q28 0 86 1v-108l-53 2l78 -211l78 211l-53 -2v108q50 -1 72 -1h98q15 0 67 2v-108l-69 1l-219 -565q-54 2 -88 2q-40 0 -82 -2v108z" />
<glyph unicode="z" horiz-adv-x="494" d="M17 -1v98l265 276h-142v-67h-103v123v42q63 -1 96 -1h245q29 0 86 1v-99l-265 -275h164l-1 72h102v-22l-1 -60l1 -88q-52 1 -82 1h-280q-23 0 -85 -1z" />
<glyph unicode="{" horiz-adv-x="360" d="M86 -46v155q0 39 -15.5 59t-52.5 28v82q37 8 52.5 28t15.5 59v155q0 73 28 107q34 40 118 40h84v-81h-10q-56 0 -78 -17q-23 -18 -23 -71v-142q0 -49 -16.5 -76t-56.5 -43q40 -16 56.5 -43t16.5 -76v-142q0 -41 9 -54q20 -34 88 -34h14v-81h-84q-84 0 -118 40 q-28 34 -28 107z" />
<glyph unicode="|" d="M197 -167v834h106v-834h-106z" />
<glyph unicode="}" horiz-adv-x="360" d="M45 -112h10q58 0 78 17q18 13 21 37q3 27 3 34v142q0 49 16.5 76t56.5 43q-40 16 -56.5 43t-16.5 76v142q0 41 -9 54q-20 34 -89 34h-14v81h85q84 0 118 -40q28 -34 28 -107v-155q0 -39 15 -59t52 -28v-82q-37 -8 -52 -28t-15 -59v-155q0 -73 -28 -107q-34 -40 -118 -40 h-85v81z" />
<glyph unicode="~" horiz-adv-x="667" d="M162 601l-23 15q33 60 64 86.5t67 26.5q26 0 80 -19q53 -19 78 -19q40 0 76 42l24 -14q-22 -43 -55 -78q-34 -35 -78 -35q-25 0 -101 28q-28 11 -58 11q-19 0 -32.5 -7t-32.5 -27q-1 -2 -9 -10z" />
<glyph unicode="&#xa1;" horiz-adv-x="295" d="M57 310v161h155v-161h-155zM57 4l40 234h80l34 -234v-199h-154v199z" />
<glyph unicode="&#xa2;" d="M84 152q-76 73 -76 180q0 93 58 160.5t147 77.5v70h76v-75q40 -8 82 -37v33h104v-86v-65v-45h-110q-13 41 -36 59.5t-63 18.5q-50 0 -78 -31t-28 -86q0 -53 28.5 -85.5t75.5 -32.5q33 0 58.5 18t51.5 60l118 -53q-67 -129 -199 -146v-82h-77v81q-89 26 -132 66z" />
<glyph unicode="&#xa3;" d="M-2 105q0 50 30.5 81t80.5 31q34 0 71 -20q1 8 1 18q0 34 -17 68h-143v91h95q-52 91 -52 151q0 69 57.5 114t145.5 45q107 0 162 -57q40 -41 49 -119l-129 -13q-2 102 -80 102q-29 0 -49 -17.5t-20 -42.5q0 -34 28 -87l25 -47l11 -29h133v-91h-114q4 -25 4 -47 q0 -47 -14 -98q61 -34 100 -34q41 0 58 39q9 18 9 67l62 -10q1 -12 1 -27q0 -89 -35 -145q-27 -41 -92 -41q-73 0 -150 65q-49 -61 -117 -61q-50 0 -80.5 31.5t-30.5 82.5zM108 65q41 0 58 49q-43 32 -67 32q-14 0 -24 -10.5t-10 -26.5q0 -18 12.5 -31t30.5 -13z" />
<glyph unicode="&#xa4;" d="M133 145l-71 71l51 51l-5 10q-15 33 -15 56t15 56l5 11l-51 51l71 70l50 -50q10 4 11 4l21 10q12 6 35 6q17 0 24 -2t32 -14q1 0 11 -4l51 50l70 -70l-51 -51l5 -11l9 -20q6 -12 6 -36t-8 -42q-2 -5 -7 -14q-3 -5 -5 -10l51 -51l-70 -71l-51 51l-9 -4q-36 -16 -59 -16 q-24 0 -57 16l-2 1q-2 1 -3.5 1.5t-3.5 1.5zM250 244q37 0 63 26.5t26 63.5t-26 63t-63 26t-63 -26t-26 -62q0 -38 26 -64.5t63 -26.5z" />
<glyph unicode="&#xa5;" d="M78 -2v112l102 -1v125h-145v91h128l-115 240h-63v104q19 -1 42 -1q26 -1 53 -1h23q34 0 137 2v-104h-57l90 -193l83 193h-50v104q81 -2 99 -2h47q15 0 29 1q20 0 35 1v-104h-54l-113 -240h113v-91h-143v-125l101 1v-112l-49 1l-45 1h-132l-62 -1z" />
<glyph unicode="&#xa6;" d="M197 310v357h106v-357h-106zM197 153h106v-320h-106v320z" />
<glyph unicode="&#xa7;" horiz-adv-x="616" d="M52 9v14h148q4 -61 27.5 -81.5t89.5 -20.5q92 0 92 55q0 22 -16 38q-7 6 -74 35l-127 55q-87 38 -125 78.5t-38 96.5q0 76 78 127q-45 44 -45 97q0 77 67.5 124t176.5 47q129 0 199 -71q24 -25 35.5 -54.5t17.5 -84.5h-160q-2 50 -23.5 69t-73.5 19q-88 0 -88 -45 q0 -17 16 -27t100 -42l104 -40q155 -60 155 -177q0 -78 -77 -126q50 -58 50 -119q0 -79 -71 -127.5t-186 -48.5q-145 0 -211 80q-41 52 -41 129zM181 286q0 -20 16 -32.5t75 -37.5l115 -48q49 10 49 50q0 20 -13.5 32.5t-53.5 28.5l-143 58q-45 -20 -45 -51z" />
<glyph unicode="&#xa8;" d="M350 549q-27 0 -46 19t-19 47q0 26 19.5 45t46.5 19q26 0 45 -19.5t19 -45.5q0 -27 -19 -46t-46 -19zM150 549q-27 0 -46 19t-19 47q0 26 19.5 45t46.5 19q26 0 45 -19.5t19 -45.5q0 -27 -19 -46t-46 -19z" />
<glyph unicode="&#xa9;" horiz-adv-x="763" d="M33 333q0 146 102.5 247.5t250.5 101.5q140 0 241.5 -103t101.5 -246q0 -144 -102 -246t-246 -102q-143 0 -245.5 102.5t-102.5 245.5zM84 333q0 -124 87.5 -212.5t209.5 -88.5q123 0 210 88.5t87 213.5q0 123 -86.5 212t-206.5 89q-126 0 -213.5 -87.5t-87.5 -214.5z M184 336q0 88 57.5 143.5t146.5 55.5q67 0 105 -34v25h71l-1 -39q-1 -21 -1 -44q0 -12 2 -56h-75q-22 74 -94 74q-44 0 -70.5 -34.5t-26.5 -92.5q0 -56 27 -89t74 -33q39 0 64.5 27t30.5 75l84 -41q-19 -65 -67 -100t-121 -35q-91 0 -148.5 55t-57.5 143z" />
<glyph unicode="&#xaa;" horiz-adv-x="333" d="M123 394q-41 0 -68.5 25t-27.5 63t29.5 62t75.5 24q32 0 61 -12v12q0 39 -43 39q-31 0 -43 -23l-81 14q22 37 52.5 52.5t81.5 15.5q49 0 80 -17q24 -13 33 -31.5t9 -55.5v-98h38v-65q-35 1 -41 1h-55q-14 0 -31 -1v19q-31 -24 -70 -24zM147 457q17 0 46 21v19 q-29 15 -45 15q-12 0 -20.5 -8t-8.5 -19q0 -28 28 -28zM16 311v45h313v-45h-313z" />
<glyph unicode="&#xab;" horiz-adv-x="606" d="M254 239l166 225h139l-164 -225l164 -224h-139zM198 15l-165 224l165 225h140l-164 -225l164 -224h-140z" />
<glyph unicode="&#xac;" d="M29 194v73h442v-267h-172v194h-270z" />
<glyph unicode="&#xad;" horiz-adv-x="227" d="M0 182v117h227v-117h-227z" />
<glyph unicode="&#xae;" horiz-adv-x="763" d="M33 333q0 146 102.5 247.5t250.5 101.5q140 0 241.5 -103t101.5 -246q0 -144 -102 -246t-246 -102q-143 0 -245.5 102.5t-102.5 245.5zM84 333q0 -124 87.5 -212.5t209.5 -88.5q123 0 210 88.5t87 213.5q0 123 -86.5 212t-206.5 89q-126 0 -213.5 -87.5t-87.5 -214.5z M189 146v71h44v240l-44 -1v72q22 0 25 -1h22h73q112 0 140 -5q37 -7 61 -36.5t24 -68.5q0 -63 -63 -97l58 -104l44 1v-71q-33 1 -38 1h-30l-9 -1h-17h-24l-85 160h-32v-89h44v-71q-21 0 -25 1h-22h-99h-22q-4 -1 -25 -1zM338 375h27q31 0 44.5 9.5t13.5 32.5q0 39 -58 39 h-27v-81z" />
<glyph unicode="&#xaf;" d="M90 567v80h321v-80h-321z" />
<glyph unicode="&#xb0;" horiz-adv-x="323" d="M162 391q-60 0 -101.5 41.5t-41.5 100.5q0 57 42 98t101 41t100.5 -41t41.5 -99t-41.5 -99.5t-100.5 -41.5zM162 448q34 0 59 25t25 59t-25 58.5t-59 24.5q-35 0 -60 -24t-25 -58q0 -36 24.5 -60.5t60.5 -24.5z" />
<glyph unicode="&#xb1;" d="M202 169v156h-147v96h147v157h96v-157h146v-96h-146v-156h-96zM55 33v96h389v-96h-389z" />
<glyph unicode="&#xb2;" horiz-adv-x="327" d="M17 265q6 76 29.5 119.5t84.5 92.5q36 28 48 46t12 41q0 38 -35 38q-38 0 -38 -57q0 -16 1 -26l-93 4q3 74 34 108q38 44 104 44q56 0 93.5 -33t37.5 -82q0 -37 -19 -63.5t-71 -62.5q-77 -51 -88 -96h104l2 52l77 -1l-4 -124q-49 1 -75 1h-125q-13 0 -79 -1z" />
<glyph unicode="&#xb3;" horiz-adv-x="327" d="M154 259q-68 0 -110 45q-26 28 -31 88l87 12q-2 -69 48 -69q48 0 48 53q0 23 -13.5 37.5t-34.5 14.5q-8 0 -14 -1l-15 -1v77q7 -1 15 -1q52 0 52 46q0 40 -36 40q-20 0 -29 -12t-11 -43l-89 7q5 57 34 86q35 37 102 37q55 0 91.5 -30t36.5 -76q0 -64 -54 -91 q69 -25 69 -94q0 -53 -42 -89t-104 -36z" />
<glyph unicode="&#xb4;" d="M176 540l86 143h125l-130 -143h-81z" />
<glyph unicode="&#xb5;" horiz-adv-x="486" d="M2 -71q32 147 32 308v220h142v-287q0 -72 13 -98q13 -24 42 -24q32 0 72 50v359h141v-322q0 -52 8 -68.5t34 -16.5q11 0 27 4v-20l-136 -45q-1 -1 -6 -1q-21 0 -35 17q-10 12 -23 51q-37 -43 -62 -57.5t-60 -14.5q-40 0 -63.5 18t-43.5 65q-1 -7 -1 -15q0 -28 5 -48 t29 -91q12 -35 12 -52q0 -25 -19 -41.5t-48 -16.5q-31 0 -50 16.5t-19 43.5t9 66z" />
<glyph unicode="&#xb6;" horiz-adv-x="667" d="M181 -115l100 -1v442h-14q-87 0 -138.5 45.5t-51.5 122.5q0 104 86 148q50 25 142 25h200q18 0 93 1v-79l-100 1v-706l100 1v-79q-87 1 -100 1h-66v783h-85v-783h-66q-19 0 -100 -1v79z" />
<glyph unicode="&#xb7;" horiz-adv-x="255" d="M50 160v161h155v-161h-155z" />
<glyph unicode="&#xb8;" d="M198 -50h104v-61q0 -72 -30 -101q-27 -27 -74 -31v54q21 2 29.5 11t8.5 31q0 5 -1 9h-37v88z" />
<glyph unicode="&#xb9;" horiz-adv-x="327" d="M67 266v73l56 -1v224q-35 -5 -61 -6v74q86 -1 110 46h53v-338l57 1v-73q-46 1 -62 1h-90h-28q-6 -1 -35 -1z" />
<glyph unicode="&#xba;" horiz-adv-x="333" d="M167 394q-60 0 -100.5 39t-40.5 97q0 59 40 97.5t102 38.5q59 0 99 -38.5t40 -96.5t-40.5 -97.5t-99.5 -39.5zM167 465q21 0 33.5 17t12.5 46q0 31 -12.5 48.5t-33.5 17.5q-22 0 -34.5 -17.5t-12.5 -48.5q0 -28 13 -45.5t34 -17.5zM10 311v45h313v-45h-313z" />
<glyph unicode="&#xbb;" horiz-adv-x="606" d="M268 15l164 225l-164 224h140l165 -224l-165 -225h-140zM47 15l164 225l-164 224h139l166 -224l-166 -225h-139z" />
<glyph unicode="&#xbc;" horiz-adv-x="781" d="M192 5l325 696l73 -34l-327 -695zM67 266v73l56 -1v224q-35 -5 -61 -6v74q86 -1 110 46h53v-338l57 1v-73q-46 1 -62 1h-90h-28q-6 -1 -35 -1zM459 169l171 237h90v-237h40v-63h-40v-35l38 1v-73q-46 1 -56 1h-67q-17 0 -61 -1v73l50 -1v35h-141zM540 169h85l1 127z" />
<glyph unicode="&#xbd;" horiz-adv-x="781" d="M192 5l325 696l73 -34l-327 -695zM67 266v73l56 -1v224q-35 -5 -61 -6v74q86 -1 110 46h53v-338l57 1v-73q-46 1 -62 1h-90h-28q-6 -1 -35 -1zM472 -1q6 76 29.5 119.5t84.5 92.5q36 29 48 46t12 40q0 38 -35 38q-38 0 -38 -57q0 -15 1 -26l-93 5q3 70 34 107 q39 44 104 44q56 0 93.5 -33t37.5 -82q0 -36 -19 -63t-71 -62q-77 -51 -88 -96h104l2 52l77 -1l-4 -124q-49 1 -75 1h-125q-13 0 -79 -1z" />
<glyph unicode="&#xbe;" horiz-adv-x="781" d="M191 5l326 696l72 -34l-327 -695zM154 259q-68 0 -110 45q-26 28 -31 88l87 12q-2 -69 48 -69q48 0 48 53q0 23 -13.5 37.5t-34.5 14.5q-8 0 -14 -1l-15 -1v77q7 -1 15 -1q52 0 52 46q0 40 -36 40q-20 0 -29 -12t-11 -43l-89 7q5 57 34 86q35 37 102 37q55 0 91.5 -30 t36.5 -76q0 -64 -54 -91q69 -25 69 -94q0 -53 -42 -89t-104 -36zM459 169l170 237h90v-237h40v-63h-40v-35l38 1v-73q-46 1 -56 1h-67q-17 0 -60 -1v73l49 -1v35h-140zM540 169h84l1 127z" />
<glyph unicode="&#xbf;" horiz-adv-x="513" d="M202 310v161h155v-161h-155zM27 -13q0 81 48.5 129.5t128.5 48.5h22l13 74h78l10 -190q-33 16 -63 16q-35 0 -60.5 -26t-25.5 -62t25 -60.5t62 -24.5t58.5 20.5t21.5 55.5q0 6 -2 28h144v-9q0 -85 -50 -135q-67 -65 -184 -65q-102 0 -164 55t-62 145z" />
<glyph unicode="&#xc0;" horiz-adv-x="725" d="M322 720l-113 127h138l76 -127h-101zM-3 -2l1 116l71 -2l152 445l-88 -1v113q114 -2 187 -2h93q77 0 187 2v-113l-86 1l145 -445l70 1l-2 -115q-73 2 -96 2h-101q-36 0 -118 -2v116l82 -2l-37 124h-186l-38 -124l81 2v-116q-18 1 -45 1l-68 1h-114q-54 0 -90 -2zM301 331 h129l-63 214z" />
<glyph unicode="&#xc1;" horiz-adv-x="725" d="M332 720l76 127h138l-113 -127h-101zM-3 -2l1 116l71 -2l152 445l-88 -1v113q114 -2 187 -2h93q77 0 187 2v-113l-86 1l145 -445l70 1l-2 -115q-73 2 -96 2h-101q-36 0 -118 -2v116l82 -2l-37 124h-186l-38 -124l81 2v-116q-18 1 -45 1l-68 1h-114q-54 0 -90 -2zM301 331 h129l-63 214z" />
<glyph unicode="&#xc2;" horiz-adv-x="725" d="M211 720l92 127h134l91 -127h-116l-42 65l-43 -65h-116zM-3 -2l1 116l71 -2l152 445l-88 -1v113q114 -2 187 -2h93q77 0 187 2v-113l-86 1l145 -445l70 1l-2 -115q-73 2 -96 2h-101q-36 0 -118 -2v116l82 -2l-37 124h-186l-38 -124l81 2v-116q-18 1 -45 1l-68 1h-114 q-54 0 -90 -2zM301 331h129l-63 214z" />
<glyph unicode="&#xc3;" horiz-adv-x="725" d="M212 723q15 124 108 124q29 0 85 -25q31 -14 40 -14q20 0 26 36h82q-10 -68 -33.5 -96t-70.5 -28q-21 0 -36 4.5t-55 21.5q-29 12 -40 12q-21 0 -24 -35h-82zM-3 -2l1 116l71 -2l152 445l-88 -1v113q114 -2 187 -2h93q77 0 187 2v-113l-86 1l145 -445l70 1l-2 -115 q-73 2 -96 2h-101q-36 0 -118 -2v116l82 -2l-37 124h-186l-38 -124l81 2v-116q-18 1 -45 1l-68 1h-114q-54 0 -90 -2zM301 331h129l-63 214z" />
<glyph unicode="&#xc4;" horiz-adv-x="725" d="M487 715q-29 0 -49 20.5t-20 49.5q0 28 21 48.5t50 20.5q28 0 48 -20.5t20 -48.5q0 -29 -20.5 -49.5t-49.5 -20.5zM250 715q-29 0 -49 20.5t-20 49.5q0 28 21 48.5t50 20.5q28 0 48 -20.5t20 -48.5q0 -29 -20.5 -49.5t-49.5 -20.5zM-3 -2l1 116l71 -2l152 445l-88 -1v113 q114 -2 187 -2h93q77 0 187 2v-113l-86 1l145 -445l70 1l-2 -115q-73 2 -96 2h-101q-36 0 -118 -2v116l82 -2l-37 124h-186l-38 -124l81 2v-116q-18 1 -45 1l-68 1h-114q-54 0 -90 -2zM301 331h129l-63 214z" />
<glyph unicode="&#xc5;" horiz-adv-x="725" d="M372 705q-42 0 -71.5 30t-29.5 72t30 71.5t73 29.5q41 0 70.5 -30t29.5 -71q0 -42 -30 -72t-72 -30zM371 768q17 0 28.5 12t11.5 28t-11.5 27.5t-27.5 11.5q-17 0 -28.5 -11.5t-11.5 -27.5t11.5 -28t27.5 -12zM-3 -2l1 116l71 -2l152 445l-88 -1v113q114 -2 187 -2h93 q77 0 187 2v-113l-86 1l145 -445l70 1l-2 -115q-73 2 -96 2h-101q-36 0 -118 -2v116l82 -2l-37 124h-186l-38 -124l81 2v-116q-18 1 -45 1l-68 1h-114q-54 0 -90 -2zM301 331h129l-63 214z" />
<glyph unicode="&#xc6;" horiz-adv-x="955" d="M-3 -2v115l67 -1l192 443l-97 -1v115q101 -2 270 -2h287q116 0 196 2v-44v-65v-72v-41h-128l3 110h-188v-165h161v-110h-161v-172h189l-3 105h131q-2 -39 -2 -75l1 -105q0 -17 -1 -37q-53 2 -136 2h-349q-20 0 -39 -1q-21 0 -37 -1v115l76 -1v170h-154l-72 -170l81 1 v-115q-67 2 -108 2h-72q-23 0 -48 -1q-32 0 -59 -1zM317 383h112v174h-39z" />
<glyph unicode="&#xc7;" horiz-adv-x="726" d="M276 154q49 -49 121 -49q68 0 113.5 48.5t55.5 131.5l134 -68q-31 -112 -113.5 -172t-204.5 -60q-155 0 -252 97t-97 251q0 153 97.5 251t249.5 98q116 0 186 -69v52h111q0 -11 -0.5 -26t-1 -24t-0.5 -13l-2 -78q0 -26 3 -94h-118q-17 56 -46 85q-48 46 -120 46 q-80 0 -127 -62.5t-47 -169.5q0 -117 58 -175zM324 -53h112v-72q0 -60 -29.5 -94.5t-82.5 -36.5v59q48 2 45 52h-45v92z" />
<glyph unicode="&#xc8;" horiz-adv-x="630" d="M289 720l-113 127h138l76 -127h-101zM30 -2v116l77 -2v445l-77 -3v115q16 -1 37 -1q20 -1 40 -1h360q73 0 123 2v-51v-62l1 -76q0 -16 -1 -34h-129l4 111h-188v-165h159v-110h-159v-172h186l-4 104h129v-111v-28v-77q-21 1 -51 1q-34 1 -67 1h-363q-20 0 -40 -1 q-21 0 -37 -1z" />
<glyph unicode="&#xc9;" horiz-adv-x="630" d="M280 720l76 127h138l-113 -127h-101zM30 -2v116l77 -2v445l-77 -3v115q16 -1 37 -1q20 -1 40 -1h360q73 0 123 2v-51v-62l1 -76q0 -16 -1 -34h-129l4 111h-188v-165h159v-110h-159v-172h186l-4 104h129v-111v-28v-77q-21 1 -51 1q-34 1 -67 1h-363q-20 0 -40 -1 q-21 0 -37 -1z" />
<glyph unicode="&#xca;" horiz-adv-x="630" d="M171 720l92 127h134l91 -127h-116l-42 65l-43 -65h-116zM30 -2v116l77 -2v445l-77 -3v115q16 -1 37 -1q20 -1 40 -1h360q73 0 123 2v-51v-62l1 -76q0 -16 -1 -34h-129l4 111h-188v-165h159v-110h-159v-172h186l-4 104h129v-111v-28v-77q-21 1 -51 1q-34 1 -67 1h-363 q-20 0 -40 -1q-21 0 -37 -1z" />
<glyph unicode="&#xcb;" horiz-adv-x="630" d="M447 715q-29 0 -49 20.5t-20 49.5q0 28 21 48.5t50 20.5q28 0 48 -20.5t20 -48.5q0 -29 -20.5 -49.5t-49.5 -20.5zM210 715q-29 0 -49 20.5t-20 49.5q0 28 21 48.5t50 20.5q28 0 48 -20.5t20 -48.5q0 -29 -20.5 -49.5t-49.5 -20.5zM30 -2v116l77 -2v445l-77 -3v115 q16 -1 37 -1q20 -1 40 -1h360q73 0 123 2v-51v-62l1 -76q0 -16 -1 -34h-129l4 111h-188v-165h159v-110h-159v-172h186l-4 104h129v-111v-28v-77q-21 1 -51 1q-34 1 -67 1h-363q-20 0 -40 -1q-21 0 -37 -1z" />
<glyph unicode="&#xcc;" horiz-adv-x="383" d="M148 720l-113 127h138l76 -127h-101zM30 -2v116l77 -2v443l-77 -2v116q18 -1 37 -1q20 -1 40 -1h170q20 0 39 1q20 0 37 1v-116l-76 2v-443l76 2v-116q-17 1 -37 1q-19 1 -39 1h-170q-20 0 -40 -1q-19 0 -37 -1z" />
<glyph unicode="&#xcd;" horiz-adv-x="383" d="M155 720l76 127h138l-113 -127h-101zM30 -2v116l77 -2v443l-77 -2v116q18 -1 37 -1q20 -1 40 -1h170q20 0 39 1q20 0 37 1v-116l-76 2v-443l76 2v-116q-17 1 -37 1q-19 1 -39 1h-170q-20 0 -40 -1q-19 0 -37 -1z" />
<glyph unicode="&#xce;" horiz-adv-x="383" d="M43 720l92 127h134l91 -127h-116l-42 65l-43 -65h-116zM30 -2v116l77 -2v443l-77 -2v116q18 -1 37 -1q20 -1 40 -1h170q20 0 39 1q20 0 37 1v-116l-76 2v-443l76 2v-116q-17 1 -37 1q-19 1 -39 1h-170q-20 0 -40 -1q-19 0 -37 -1z" />
<glyph unicode="&#xcf;" horiz-adv-x="383" d="M293 715q-29 0 -49 20.5t-20 49.5q0 28 21 48.5t50 20.5q28 0 48 -20.5t20 -48.5q0 -29 -20.5 -49.5t-49.5 -20.5zM103 715q-29 0 -49 20.5t-20 49.5q0 28 21 48.5t50 20.5q28 0 48 -20.5t20 -48.5q0 -29 -20.5 -49.5t-49.5 -20.5zM30 -2v116l77 -2v443l-77 -2v116 q18 -1 37 -1q20 -1 40 -1h170q20 0 39 1q20 0 37 1v-116l-76 2v-443l76 2v-116q-17 1 -37 1q-19 1 -39 1h-170q-20 0 -40 -1q-19 0 -37 -1z" />
<glyph unicode="&#xd0;" horiz-adv-x="745" d="M30 -2v116l77 -2v188h-77v97h77v158l-77 -1v115q16 -1 37 -1q20 -1 40 -1h117q166 0 232 -9.5t116 -41.5q67 -44 103 -118.5t36 -170.5q0 -188 -125 -274q-84 -59 -212 -56l-140 3h-127q-20 0 -40 -1q-21 0 -37 -1zM277 110l45 -1q88 -1 131 28q34 24 53.5 73.5 t19.5 114.5q0 80 -28 135t-80 77q-41 17 -113 17h-28v-157h116v-97h-116v-190z" />
<glyph unicode="&#xd1;" horiz-adv-x="746" d="M229 723q15 124 108 124q29 0 85 -25q31 -14 40 -14q20 0 26 36h82q-10 -68 -33.5 -96t-70.5 -28q-21 0 -36 4.5t-55 21.5q-29 12 -40 12q-21 0 -24 -35h-82zM30 -2v116l77 -2v443l-77 -2v116q16 -1 37 -1q20 -1 40 -1h62l126 1l239 -420v307l-73 -2v116q16 -1 37 -1 q18 -1 35 -1h113q20 0 40 1q21 0 37 1v-116l-77 2v-555h-143l-284 497v-385l76 2v-116q-16 1 -36 1q-19 1 -40 1h-112q-20 0 -40 -1q-21 0 -37 -1z" />
<glyph unicode="&#xd2;" horiz-adv-x="782" d="M360 720l-113 127h138l76 -127h-101zM33 327q0 172 109 266q102 89 256 89t252 -97t98 -250q0 -159 -98.5 -254.5t-262.5 -95.5q-159 0 -256.5 94t-97.5 248zM218 330q0 -104 46.5 -164.5t127.5 -60.5q80 0 125.5 60t45.5 166q0 108 -45.5 169.5t-125.5 61.5 q-82 0 -128 -61.5t-46 -170.5z" />
<glyph unicode="&#xd3;" horiz-adv-x="782" d="M357 720l76 127h138l-113 -127h-101zM33 327q0 172 109 266q102 89 256 89t252 -97t98 -250q0 -159 -98.5 -254.5t-262.5 -95.5q-159 0 -256.5 94t-97.5 248zM218 330q0 -104 46.5 -164.5t127.5 -60.5q80 0 125.5 60t45.5 166q0 108 -45.5 169.5t-125.5 61.5 q-82 0 -128 -61.5t-46 -170.5z" />
<glyph unicode="&#xd4;" horiz-adv-x="782" d="M245 720l92 127h134l91 -127h-116l-42 65l-43 -65h-116zM33 327q0 172 109 266q102 89 256 89t252 -97t98 -250q0 -159 -98.5 -254.5t-262.5 -95.5q-159 0 -256.5 94t-97.5 248zM218 330q0 -104 46.5 -164.5t127.5 -60.5q80 0 125.5 60t45.5 166q0 108 -45.5 169.5 t-125.5 61.5q-82 0 -128 -61.5t-46 -170.5z" />
<glyph unicode="&#xd5;" horiz-adv-x="782" d="M254 723q15 124 108 124q29 0 85 -25q31 -14 40 -14q20 0 26 36h82q-10 -68 -33.5 -96t-70.5 -28q-21 0 -36 4.5t-55 21.5q-29 12 -40 12q-21 0 -24 -35h-82zM33 327q0 172 109 266q102 89 256 89t252 -97t98 -250q0 -159 -98.5 -254.5t-262.5 -95.5q-159 0 -256.5 94 t-97.5 248zM218 330q0 -104 46.5 -164.5t127.5 -60.5q80 0 125.5 60t45.5 166q0 108 -45.5 169.5t-125.5 61.5q-82 0 -128 -61.5t-46 -170.5z" />
<glyph unicode="&#xd6;" horiz-adv-x="782" d="M516 715q-29 0 -49 20.5t-20 49.5q0 28 21 48.5t50 20.5q28 0 48 -20.5t20 -48.5q0 -29 -20.5 -49.5t-49.5 -20.5zM279 715q-29 0 -49 20.5t-20 49.5q0 28 21 48.5t50 20.5q28 0 48 -20.5t20 -48.5q0 -29 -20.5 -49.5t-49.5 -20.5zM33 327q0 172 109 266q102 89 256 89 t252 -97t98 -250q0 -159 -98.5 -254.5t-262.5 -95.5q-159 0 -256.5 94t-97.5 248zM218 330q0 -104 46.5 -164.5t127.5 -60.5q80 0 125.5 60t45.5 166q0 108 -45.5 169.5t-125.5 61.5q-82 0 -128 -61.5t-46 -170.5z" />
<glyph unicode="&#xd7;" d="M123 145l-68 68l127 127l-127 128l68 67l127 -127l127 127l68 -68l-127 -127l127 -127l-68 -68l-127 128z" />
<glyph unicode="&#xd8;" horiz-adv-x="782" d="M39 31l68 72q-74 90 -74 226q0 158 99 255.5t260 97.5q124 0 213 -59l75 77l60 -57l-73 -76q81 -98 81 -232q0 -158 -99 -254t-262 -96q-124 0 -219 63l-73 -76zM231 233l273 285q-48 44 -115 44q-79 0 -125 -62.5t-46 -168.5q0 -49 13 -98zM272 156q48 -51 120 -51 q80 0 125.5 60t45.5 166q0 59 -15 112z" />
<glyph unicode="&#xd9;" horiz-adv-x="665" d="M308 720l-113 127h138l76 -127h-101zM151 52q-54 57 -54 162v341l-77 -2v116q16 -1 37 -1q20 -1 40 -1h157q20 0 39 1q21 0 37 1v-115l-63 1v-342q0 -56 21.5 -82t68.5 -26q48 0 73 28q23 27 23 96v326l-64 -1v115q17 -1 38 -1q19 -1 39 -1h102q20 0 40 1q21 0 37 1v-116 l-77 2v-341q0 -70 -16.5 -111.5t-56.5 -70.5q-63 -47 -163 -47q-117 0 -181 67z" />
<glyph unicode="&#xda;" horiz-adv-x="665" d="M312 720l76 127h138l-113 -127h-101zM151 52q-54 57 -54 162v341l-77 -2v116q16 -1 37 -1q20 -1 40 -1h157q20 0 39 1q21 0 37 1v-115l-63 1v-342q0 -56 21.5 -82t68.5 -26q48 0 73 28q23 27 23 96v326l-64 -1v115q17 -1 38 -1q19 -1 39 -1h102q20 0 40 1q21 0 37 1v-116 l-77 2v-341q0 -70 -16.5 -111.5t-56.5 -70.5q-63 -47 -163 -47q-117 0 -181 67z" />
<glyph unicode="&#xdb;" horiz-adv-x="665" d="M200 720l92 127h134l91 -127h-116l-42 65l-43 -65h-116zM151 52q-54 57 -54 162v341l-77 -2v116q16 -1 37 -1q20 -1 40 -1h157q20 0 39 1q21 0 37 1v-115l-63 1v-342q0 -56 21.5 -82t68.5 -26q48 0 73 28q23 27 23 96v326l-64 -1v115q17 -1 38 -1q19 -1 39 -1h102 q20 0 40 1q21 0 37 1v-116l-77 2v-341q0 -70 -16.5 -111.5t-56.5 -70.5q-63 -47 -163 -47q-117 0 -181 67z" />
<glyph unicode="&#xdc;" horiz-adv-x="665" d="M464 715q-29 0 -49 20.5t-20 49.5q0 28 21 48.5t50 20.5q28 0 48 -20.5t20 -48.5q0 -29 -20.5 -49.5t-49.5 -20.5zM227 715q-29 0 -49 20.5t-20 49.5q0 28 21 48.5t50 20.5q28 0 48 -20.5t20 -48.5q0 -29 -20.5 -49.5t-49.5 -20.5zM151 52q-54 57 -54 162v341l-77 -2v116 q16 -1 37 -1q20 -1 40 -1h157q20 0 39 1q21 0 37 1v-115l-63 1v-342q0 -56 21.5 -82t68.5 -26q48 0 73 28q23 27 23 96v326l-64 -1v115q17 -1 38 -1q19 -1 39 -1h102q20 0 40 1q21 0 37 1v-116l-77 2v-341q0 -70 -16.5 -111.5t-56.5 -70.5q-63 -47 -163 -47q-117 0 -181 67z " />
<glyph unicode="&#xdd;" horiz-adv-x="656" d="M308 720l76 127h138l-113 -127h-101zM155 -2v116l87 -2v181l-162 262l-83 -1v115q39 -2 105 -2h95l83 1q22 0 38 1v-115l-57 1l91 -153l90 153l-58 -1v115q52 -2 115 -2h63q65 0 98 2v-115l-74 1l-174 -265v-178l86 2v-116q-16 1 -37 1q-19 1 -39 1h-190q-20 0 -40 -1 q-21 0 -37 -1z" />
<glyph unicode="&#xde;" horiz-adv-x="631" d="M30 -2v116l77 -2v443l-77 -2v116h247v-67h24q161 0 224 -41q90 -57 90 -174q0 -129 -109 -187q-57 -30 -160 -30q-9 0 -69 2v-60l83 2v-116q-17 1 -37 1q-19 1 -39 1h-177q-20 0 -40 -1q-21 0 -37 -1zM277 281l34 -1q125 -4 125 106q0 52 -28 76t-89 24q-4 0 -42 -2v-203 z" />
<glyph unicode="&#xdf;" horiz-adv-x="576" d="M15 -1v108l67 -2v218l-66 -2v119l66 -1v57q0 92 43 135q54 56 169 56q95 0 147 -41.5t52 -117.5q0 -79 -58 -118q49 -17 65 -34q49 -51 49 -154q0 -57 -19 -107.5t-51 -78.5q-42 -39 -118 -39q-22 0 -77 7v125q20 -4 39 -4q36 0 56.5 26.5t20.5 73.5q0 50 -22.5 77.5 t-63.5 27.5q-19 0 -44 -6v126q9 -1 23 -1q28 0 44.5 17.5t16.5 48.5q0 30 -16 47.5t-44 17.5q-38 0 -54 -29q-11 -21 -11 -80v-472q-61 1 -87 1h-60q-11 0 -67 -1z" />
<glyph unicode="&#xe0;" horiz-adv-x="550" d="M238 540l-130 143h125l86 -143h-81zM36 146q0 67 49.5 109.5t128.5 42.5q59 0 113 -24v31q0 78 -82 78q-55 0 -77 -42l-130 23q35 62 87.5 89t137.5 27q83 0 137 -30q55 -32 67 -91q4 -20 4 -65v-189l67 2v-108q-60 1 -67 1h-95q-14 0 -49 -1v41q-58 -50 -128 -50 q-71 0 -117 44t-46 112zM185 151q0 -25 15.5 -40.5t40.5 -15.5q32 0 86 41v41q-53 29 -84 29q-25 0 -41.5 -15.5t-16.5 -39.5z" />
<glyph unicode="&#xe1;" horiz-adv-x="550" d="M228 540l86 143h125l-130 -143h-81zM36 146q0 67 49.5 109.5t128.5 42.5q59 0 113 -24v31q0 78 -82 78q-55 0 -77 -42l-130 23q35 62 87.5 89t137.5 27q83 0 137 -30q55 -32 67 -91q4 -20 4 -65v-189l67 2v-108q-60 1 -67 1h-95q-14 0 -49 -1v41q-58 -50 -128 -50 q-71 0 -117 44t-46 112zM185 151q0 -25 15.5 -40.5t40.5 -15.5q32 0 86 41v41q-53 29 -84 29q-25 0 -41.5 -15.5t-16.5 -39.5z" />
<glyph unicode="&#xe2;" horiz-adv-x="550" d="M131 540l90 143h113l90 -143h-101l-46 76l-45 -76h-101zM36 146q0 67 49.5 109.5t128.5 42.5q59 0 113 -24v31q0 78 -82 78q-55 0 -77 -42l-130 23q35 62 87.5 89t137.5 27q83 0 137 -30q55 -32 67 -91q4 -20 4 -65v-189l67 2v-108q-60 1 -67 1h-95q-14 0 -49 -1v41 q-58 -50 -128 -50q-71 0 -117 44t-46 112zM185 151q0 -25 15.5 -40.5t40.5 -15.5q32 0 86 41v41q-53 29 -84 29q-25 0 -41.5 -15.5t-16.5 -39.5z" />
<glyph unicode="&#xe3;" horiz-adv-x="550" d="M116 553q14 121 98 121q32 0 90 -29q19 -10 32 -10q12 0 17.5 7.5t9.5 28.5h76q-11 -65 -33.5 -93t-64.5 -28q-21 0 -36.5 5t-55.5 24q-20 10 -32 10q-21 0 -25 -36h-76zM36 146q0 67 49.5 109.5t128.5 42.5q59 0 113 -24v31q0 78 -82 78q-55 0 -77 -42l-130 23 q35 62 87.5 89t137.5 27q83 0 137 -30q55 -32 67 -91q4 -20 4 -65v-189l67 2v-108q-60 1 -67 1h-95q-14 0 -49 -1v41q-58 -50 -128 -50q-71 0 -117 44t-46 112zM185 151q0 -25 15.5 -40.5t40.5 -15.5q32 0 86 41v41q-53 29 -84 29q-25 0 -41.5 -15.5t-16.5 -39.5z" />
<glyph unicode="&#xe4;" horiz-adv-x="550" d="M379 549q-27 0 -46 19t-19 47q0 26 19.5 45t46.5 19q26 0 45 -19.5t19 -45.5q0 -27 -19 -46t-46 -19zM179 549q-27 0 -46 19t-19 47q0 26 19.5 45t46.5 19q26 0 45 -19.5t19 -45.5q0 -27 -19 -46t-46 -19zM36 146q0 67 49.5 109.5t128.5 42.5q59 0 113 -24v31 q0 78 -82 78q-55 0 -77 -42l-130 23q35 62 87.5 89t137.5 27q83 0 137 -30q55 -32 67 -91q4 -20 4 -65v-189l67 2v-108q-60 1 -67 1h-95q-14 0 -49 -1v41q-58 -50 -128 -50q-71 0 -117 44t-46 112zM185 151q0 -25 15.5 -40.5t40.5 -15.5q32 0 86 41v41q-53 29 -84 29 q-25 0 -41.5 -15.5t-16.5 -39.5z" />
<glyph unicode="&#xe5;" horiz-adv-x="550" d="M272 524q-40 0 -68.5 28t-28.5 69q0 40 28.5 68t69.5 28q39 0 67 -28.5t28 -67.5q0 -40 -28 -68.5t-68 -28.5zM271 581q17 0 28.5 11.5t11.5 28.5q0 16 -11.5 27.5t-27.5 11.5q-17 0 -28.5 -11.5t-11.5 -27.5t11.5 -28t27.5 -12zM36 146q0 67 49.5 109.5t128.5 42.5 q59 0 113 -24v31q0 78 -82 78q-55 0 -77 -42l-130 23q35 62 87.5 89t137.5 27q83 0 137 -30q55 -32 67 -91q4 -20 4 -65v-189l67 2v-108q-60 1 -67 1h-95q-14 0 -49 -1v41q-58 -50 -128 -50q-71 0 -117 44t-46 112zM185 151q0 -25 15.5 -40.5t40.5 -15.5q32 0 86 41v41 q-53 29 -84 29q-25 0 -41.5 -15.5t-16.5 -39.5z" />
<glyph unicode="&#xe6;" horiz-adv-x="832" d="M36 146q0 67 49.5 109t128.5 42q58 0 113 -24v32q0 78 -82 78q-55 0 -77 -42l-130 23q35 62 87.5 89t137.5 27q104 0 163 -49q42 28 74 38.5t75 10.5q104 0 169.5 -69t61.5 -179l-1 -31h-325q9 -104 102 -104q35 0 56.5 13t41.5 46l123 -39q-36 -66 -91 -96.5t-138 -30.5 q-58 0 -96 17t-82 64q-94 -57 -120 -66q-40 -15 -81 -15q-68 0 -113.5 44.5t-45.5 111.5zM481 284h175q-12 88 -88 88q-75 0 -87 -88zM185 150q0 -25 15 -40.5t40 -15.5q34 0 87 42v41q-53 28 -84 28q-25 0 -41.5 -15.5t-16.5 -39.5z" />
<glyph unicode="&#xe7;" horiz-adv-x="535" d="M26 239q0 101 68 171t165 70q68 0 130 -42l-2 32h110q-1 -54 -1 -93q0 -35 1 -106h-112q-22 81 -101 81q-49 0 -77 -31t-28 -85t28.5 -88t74.5 -34q69 0 105 83l125 -58q-20 -38 -37.5 -59t-43.5 -40q-69 -50 -154 -50q-105 0 -178 72.5t-73 176.5zM223 -50h104v-61 q0 -72 -30 -101q-27 -27 -74 -31v54q21 2 29.5 11t8.5 31q0 5 -1 9h-37v88z" />
<glyph unicode="&#xe8;" horiz-adv-x="520" d="M231 540l-130 143h125l86 -143h-81zM27 228q0 112 65.5 182t171.5 70q104 0 169 -69t61 -179l-1 -31h-325q8 -104 102 -104q35 0 56.5 13t41.5 46l123 -39q-70 -127 -228 -127q-107 0 -171.5 64.5t-64.5 173.5zM169 284h175q-12 88 -88 88q-75 0 -87 -88z" />
<glyph unicode="&#xe9;" horiz-adv-x="520" d="M231 540l86 143h125l-130 -143h-81zM27 228q0 112 65.5 182t171.5 70q104 0 169 -69t61 -179l-1 -31h-325q8 -104 102 -104q35 0 56.5 13t41.5 46l123 -39q-70 -127 -228 -127q-107 0 -171.5 64.5t-64.5 173.5zM169 284h175q-12 88 -88 88q-75 0 -87 -88z" />
<glyph unicode="&#xea;" horiz-adv-x="520" d="M124 540l90 143h113l90 -143h-101l-46 76l-45 -76h-101zM27 228q0 112 65.5 182t171.5 70q104 0 169 -69t61 -179l-1 -31h-325q8 -104 102 -104q35 0 56.5 13t41.5 46l123 -39q-70 -127 -228 -127q-107 0 -171.5 64.5t-64.5 173.5zM169 284h175q-12 88 -88 88 q-75 0 -87 -88z" />
<glyph unicode="&#xeb;" horiz-adv-x="520" d="M367 549q-27 0 -46 19t-19 47q0 26 19.5 45t46.5 19q26 0 45 -19.5t19 -45.5q0 -27 -19 -46t-46 -19zM167 549q-27 0 -46 19t-19 47q0 26 19.5 45t46.5 19q26 0 45 -19.5t19 -45.5q0 -27 -19 -46t-46 -19zM27 228q0 112 65.5 182t171.5 70q104 0 169 -69t61 -179l-1 -31 h-325q8 -104 102 -104q35 0 56.5 13t41.5 46l123 -39q-70 -127 -228 -127q-107 0 -171.5 64.5t-64.5 173.5zM169 284h175q-12 88 -88 88q-75 0 -87 -88z" />
<glyph unicode="&#xec;" horiz-adv-x="321" d="M122 540l-130 143h125l86 -143h-81zM22 -1v108l66 -2v260l-66 -1v107q59 -1 66 -1h74h6t14 0.5t18 0.5h35v-366l67 2v-108q-60 1 -67 1h-147q-11 0 -66 -1z" />
<glyph unicode="&#xed;" horiz-adv-x="321" d="M127 540l86 143h125l-130 -143h-81zM22 -1v108l67 -2v260l-67 -1v107q60 -1 67 -1h74h6t14 0.5t18 0.5h35v-366l67 2v-108q-60 1 -67 1h-147q-11 0 -67 -1z" />
<glyph unicode="&#xee;" horiz-adv-x="321" d="M19 540l90 143h113l90 -143h-101l-46 76l-45 -76h-101zM22 -1v108l66 -2v260l-66 -1v107q59 -1 66 -1h74h6t14 0.5t18 0.5h35v-366l67 2v-108q-60 1 -67 1h-147q-11 0 -66 -1z" />
<glyph unicode="&#xef;" horiz-adv-x="321" d="M248 549q-27 0 -46 19t-19 47q0 26 19.5 45t46.5 19q26 0 45 -19.5t19 -45.5q0 -27 -19 -46t-46 -19zM81 549q-27 0 -46 19t-19 47q0 26 19.5 45t46.5 19q26 0 45 -19.5t19 -45.5q0 -27 -19 -46t-46 -19zM22 -1v108l67 -2v260l-67 -1v107q60 -1 67 -1h74h6t14 0.5t18 0.5 h35v-366l67 2v-108q-60 1 -67 1h-147q-11 0 -67 -1z" />
<glyph unicode="&#xf0;" horiz-adv-x="532" d="M26 235q0 71 36.5 129t100.5 88q45 21 110 22q-13 21 -36 48l-12 14l-66 -38l-32 54l58 34q-19 20 -49 46l94 53q20 -15 51 -44l72 41l33 -53l-56 -33q177 -191 177 -359q0 -106 -68.5 -176.5t-171.5 -70.5t-172 70.5t-69 174.5zM267 110q40 0 63.5 33.5t23.5 89.5 q0 59 -23 93t-63 34q-42 0 -65.5 -34t-23.5 -93q0 -56 24 -89.5t64 -33.5z" />
<glyph unicode="&#xf1;" horiz-adv-x="579" d="M146 553q14 121 98 121q32 0 90 -29q19 -10 32 -10q12 0 17.5 7.5t9.5 28.5h76q-11 -65 -33.5 -93t-64.5 -28q-21 0 -36.5 5t-55.5 24q-20 10 -32 10q-21 0 -25 -36h-76zM22 -1v108l67 -2v260l-67 -1v108q48 -2 66 -2h51q51 0 97 1v-45q63 54 132 54q62 0 97.5 -39 t35.5 -109v-227l66 2v-108q-59 1 -66 1h-57q-1 0 -18 -0.5t-32 -0.5h-40v296q0 54 -44 54q-38 0 -74 -34v-210l67 2v-108q-60 1 -67 1h-147q-11 0 -67 -1z" />
<glyph unicode="&#xf2;" horiz-adv-x="532" d="M231 540l-130 143h125l86 -143h-81zM26 236q0 106 68.5 175t174.5 69q102 0 170 -70t68 -174q0 -105 -69 -175.5t-171 -70.5q-103 0 -172 70.5t-69 175.5zM267 110q40 0 63.5 33.5t23.5 89.5q0 59 -23 93t-63 34q-42 0 -65.5 -34t-23.5 -93q0 -56 24 -89.5t64 -33.5z" />
<glyph unicode="&#xf3;" horiz-adv-x="532" d="M231 540l86 143h125l-130 -143h-81zM26 236q0 106 68.5 175t174.5 69q102 0 170 -70t68 -174q0 -105 -69 -175.5t-171 -70.5q-103 0 -172 70.5t-69 175.5zM267 110q40 0 63.5 33.5t23.5 89.5q0 59 -23 93t-63 34q-42 0 -65.5 -34t-23.5 -93q0 -56 24 -89.5t64 -33.5z" />
<glyph unicode="&#xf4;" horiz-adv-x="532" d="M127 540l90 143h113l90 -143h-101l-46 76l-45 -76h-101zM26 236q0 106 68.5 175t174.5 69q102 0 170 -70t68 -174q0 -105 -69 -175.5t-171 -70.5q-103 0 -172 70.5t-69 175.5zM267 110q40 0 63.5 33.5t23.5 89.5q0 59 -23 93t-63 34q-42 0 -65.5 -34t-23.5 -93 q0 -56 24 -89.5t64 -33.5z" />
<glyph unicode="&#xf5;" horiz-adv-x="532" d="M131 553q14 121 98 121q32 0 90 -29q19 -10 32 -10q12 0 17.5 7.5t9.5 28.5h76q-11 -65 -33.5 -93t-64.5 -28q-21 0 -36.5 5t-55.5 24q-20 10 -32 10q-20 0 -25 -36h-76zM26 236q0 106 68.5 175t174.5 69q102 0 170 -70t68 -174q0 -105 -69 -175.5t-171 -70.5 q-103 0 -172 70.5t-69 175.5zM267 110q40 0 63.5 33.5t23.5 89.5q0 59 -23 93t-63 34q-42 0 -65.5 -34t-23.5 -93q0 -56 24 -89.5t64 -33.5z" />
<glyph unicode="&#xf6;" horiz-adv-x="532" d="M373 549q-27 0 -46 19t-19 47q0 26 19.5 45t46.5 19q26 0 45 -19.5t19 -45.5q0 -27 -19 -46t-46 -19zM173 549q-27 0 -46 19t-19 47q0 26 19.5 45t46.5 19q26 0 45 -19.5t19 -45.5q0 -27 -19 -46t-46 -19zM26 236q0 106 68.5 175t174.5 69q102 0 170 -70t68 -174 q0 -105 -69 -175.5t-171 -70.5q-103 0 -172 70.5t-69 175.5zM267 110q40 0 63.5 33.5t23.5 89.5q0 59 -23 93t-63 34q-42 0 -65.5 -34t-23.5 -93q0 -56 24 -89.5t64 -33.5z" />
<glyph unicode="&#xf7;" d="M249 447q-25 0 -43.5 18.5t-18.5 43.5q0 26 18.5 44t44.5 18q25 0 43 -18.5t18 -43.5t-18.5 -43.5t-43.5 -18.5zM55 292v96h389v-96h-389zM187 170q0 26 18.5 44t44.5 18q25 0 43 -18.5t18 -43.5q0 -26 -18.5 -44t-43.5 -18t-43.5 18t-18.5 44z" />
<glyph unicode="&#xf8;" horiz-adv-x="532" d="M37 17l48 55q-59 74 -59 165q0 105 71 176q66 67 171 67q80 0 134 -38l45 54l44 -39l-45 -53q61 -72 61 -166q0 -108 -68.5 -178t-174.5 -70q-74 0 -138 43l-46 -56zM183 186l136 156q-24 18 -51 18q-43 0 -66 -33.5t-23 -96.5q0 -20 4 -44zM207 133q27 -23 57 -23 q50 0 74 49q16 32 16 74q0 34 -7 59z" />
<glyph unicode="&#xf9;" horiz-adv-x="573" d="M256 540l-130 143h125l86 -143h-81zM79 143v222l-67 -1v107q60 -1 67 -1h56q21 0 91 1v-285q0 -37 10.5 -51.5t36.5 -14.5q38 0 71 33v212l-67 -1v107q60 -1 67 -1h59q54 0 88 1v-366l66 2v-108q-59 1 -66 1h-59l-51 -1h-18h-19v46q-60 -55 -129 -55q-62 0 -99 41.5 t-37 111.5z" />
<glyph unicode="&#xfa;" horiz-adv-x="573" d="M229 540l86 143h125l-130 -143h-81zM79 143v222l-67 -1v107q60 -1 67 -1h56q21 0 91 1v-285q0 -37 10.5 -51.5t36.5 -14.5q38 0 71 33v212l-67 -1v107q60 -1 67 -1h59q54 0 88 1v-366l66 2v-108q-59 1 -66 1h-59l-51 -1h-18h-19v46q-60 -55 -129 -55q-62 0 -99 41.5 t-37 111.5z" />
<glyph unicode="&#xfb;" horiz-adv-x="573" d="M138 540l90 143h113l90 -143h-101l-46 76l-45 -76h-101zM79 143v222l-67 -1v107q60 -1 67 -1h56q21 0 91 1v-285q0 -37 10.5 -51.5t36.5 -14.5q38 0 71 33v212l-67 -1v107q60 -1 67 -1h59q54 0 88 1v-366l66 2v-108q-59 1 -66 1h-59l-51 -1h-18h-19v46q-60 -55 -129 -55 q-62 0 -99 41.5t-37 111.5z" />
<glyph unicode="&#xfc;" horiz-adv-x="573" d="M385 549q-27 0 -46 19t-19 47q0 26 19.5 45t46.5 19q26 0 45 -19.5t19 -45.5q0 -27 -19 -46t-46 -19zM185 549q-27 0 -46 19t-19 47q0 26 19.5 45t46.5 19q26 0 45 -19.5t19 -45.5q0 -27 -19 -46t-46 -19zM79 143v222l-67 -1v107q60 -1 67 -1h56q21 0 91 1v-285 q0 -37 10.5 -51.5t36.5 -14.5q38 0 71 33v212l-67 -1v107q60 -1 67 -1h59q54 0 88 1v-366l66 2v-108q-59 1 -66 1h-59l-51 -1h-18h-19v46q-60 -55 -129 -55q-62 0 -99 41.5t-37 111.5z" />
<glyph unicode="&#xfd;" horiz-adv-x="548" d="M255 540l86 143h125l-130 -143h-81zM97 -92l96 -1l37 92l-168 366l-69 -1v108q33 -2 75 -2h114q28 0 86 1v-108l-53 2l78 -211l78 211l-53 -2v108q50 -1 72 -1h98q15 0 67 2v-108l-69 1l-219 -565q-54 2 -88 2q-40 0 -82 -2v108z" />
<glyph unicode="&#xfe;" horiz-adv-x="572" d="M12 -87l67 -1v650l-67 -2v109q49 -2 66 -2h49q58 0 99 1v-251q52 63 131 63q82 0 135.5 -69.5t53.5 -175.5t-55 -175.5t-138 -69.5q-38 0 -67 13.5t-60 46.5v-138l67 1v-107q-53 1 -64 1h-146q-1 0 -14 -0.5t-23 -0.5h-34v107zM225 232q0 -56 22 -87t62 -31q39 0 61 34 t22 94q0 53 -21.5 85.5t-57.5 32.5q-35 0 -59 -27q-29 -33 -29 -101z" />
<glyph unicode="&#xff;" horiz-adv-x="548" d="M391 549q-27 0 -46 19t-19 47q0 26 19.5 45t46.5 19q26 0 45 -19.5t19 -45.5q0 -27 -19 -46t-46 -19zM191 549q-27 0 -46 19t-19 47q0 26 19.5 45t46.5 19q26 0 45 -19.5t19 -45.5q0 -27 -19 -46t-46 -19zM97 -92l96 -1l37 92l-168 366l-69 -1v108q33 -2 75 -2h114 q28 0 86 1v-108l-53 2l78 -211l78 211l-53 -2v108q50 -1 72 -1h98q15 0 67 2v-108l-69 1l-219 -565q-54 2 -88 2q-40 0 -82 -2v108z" />
<glyph unicode="&#x152;" horiz-adv-x="976" d="M212 21q-84 37 -131.5 119t-47.5 191q0 157 88.5 250.5t237.5 89.5l153 -4h279q48 0 143 2v-38v-82v-61v-42h-129l5 111h-187v-163h159v-110h-159v-174h187l-4 105h129q-1 -71 -1 -110q0 -62 1 -107q-47 2 -128 2h-291q-19 0 -55 -4q-43 -4 -88 -4q-96 0 -161 29z M256 180q24 -40 63 -57t104 -17h30v448q-20 1 -48 1q-187 0 -187 -216q0 -97 38 -159z" />
<glyph unicode="&#x153;" horiz-adv-x="856" d="M26 237q0 104 68.5 173.5t171.5 69.5q54 0 93.5 -16t76.5 -53q69 69 165 69q102 0 165.5 -69t63.5 -179q0 -17 -1 -31h-325q9 -104 102 -104q35 0 56.5 13t41.5 46l123 -39q-70 -127 -228 -127q-55 0 -93.5 14.5t-76.5 50.5q-38 -35 -74.5 -50t-88.5 -15q-102 0 -171 71 t-69 176zM505 284h175q-12 88 -88 88q-75 0 -87 -88zM267 106q39 0 63 34.5t24 91.5q0 59 -23 93.5t-63 34.5q-42 0 -65.5 -34t-23.5 -94q0 -56 24 -91t64 -35z" />
<glyph unicode="&#x178;" horiz-adv-x="656" d="M460 715q-29 0 -49 20.5t-20 49.5q0 28 21 48.5t50 20.5q28 0 48 -20.5t20 -48.5q0 -29 -20.5 -49.5t-49.5 -20.5zM223 715q-29 0 -49 20.5t-20 49.5q0 28 21 48.5t50 20.5q28 0 48 -20.5t20 -48.5q0 -29 -20.5 -49.5t-49.5 -20.5zM155 -2v116l87 -2v181l-162 262l-83 -1 v115q39 -2 105 -2h95l83 1q22 0 38 1v-115l-57 1l91 -153l90 153l-58 -1v115q52 -2 115 -2h63q65 0 98 2v-115l-74 1l-174 -265v-178l86 2v-116q-16 1 -37 1q-19 1 -39 1h-190q-20 0 -40 -1q-21 0 -37 -1z" />
<glyph unicode="&#x2c6;" d="M104 540l90 143h113l90 -143h-101l-46 76l-45 -76h-101z" />
<glyph unicode="&#x2dc;" d="M88 553q14 121 98 121q32 0 90 -29q19 -10 32 -10q12 0 17.5 7.5t9.5 28.5h76q-11 -65 -33.5 -93t-64.5 -28q-21 0 -36.5 5t-55.5 24q-20 10 -32 10q-21 0 -25 -36h-76z" />
<glyph unicode="&#x2000;" horiz-adv-x="454" />
<glyph unicode="&#x2001;" horiz-adv-x="908" />
<glyph unicode="&#x2002;" horiz-adv-x="454" />
<glyph unicode="&#x2003;" horiz-adv-x="908" />
<glyph unicode="&#x2004;" horiz-adv-x="302" />
<glyph unicode="&#x2005;" horiz-adv-x="227" />
<glyph unicode="&#x2006;" horiz-adv-x="151" />
<glyph unicode="&#x2007;" horiz-adv-x="151" />
<glyph unicode="&#x2008;" horiz-adv-x="113" />
<glyph unicode="&#x2009;" horiz-adv-x="181" />
<glyph unicode="&#x200a;" horiz-adv-x="50" />
<glyph unicode="&#x2010;" horiz-adv-x="227" d="M0 182v117h227v-117h-227z" />
<glyph unicode="&#x2011;" horiz-adv-x="227" d="M0 182v117h227v-117h-227z" />
<glyph unicode="&#x2013;" d="M45 182v117h409v-117h-409z" />
<glyph unicode="&#x2014;" horiz-adv-x="676" d="M0 182v117h676v-117h-676z" />
<glyph unicode="&#x2018;" horiz-adv-x="254" d="M47 364v162q0 89 49 130q35 28 108 29v-73h-5q-63 0 -65 -86h70v-162h-157z" />
<glyph unicode="&#x2019;" horiz-adv-x="253" d="M54 362v70q2 -1 5 -1q25 -1 43.5 20t18.5 53v9h-67v154h149v-154q0 -84 -47 -123q-32 -27 -102 -28z" />
<glyph unicode="&#x201a;" horiz-adv-x="253" d="M54 0v154h149v-154q0 -84 -47 -123q-32 -27 -102 -28v70q2 -1 5 -1q25 -1 43.5 20t18.5 53v9h-67z" />
<glyph unicode="&#x201c;" horiz-adv-x="461" d="M254 364v162q0 89 49 130q35 28 108 29v-73h-5q-63 0 -65 -86h70v-162h-157zM47 364v162q0 89 49 130q35 28 108 29v-73h-5q-63 0 -65 -86h70v-162h-157z" />
<glyph unicode="&#x201d;" horiz-adv-x="461" d="M257 347v73h5q63 0 65 86h-70v162h157v-162q0 -89 -49 -130q-33 -26 -108 -29zM50 347v73h5q63 0 65 86h-70v162h157v-162q0 -89 -49 -130q-33 -26 -108 -29z" />
<glyph unicode="&#x201e;" horiz-adv-x="461" d="M257 0v162h157v-162q0 -89 -49 -130q-33 -26 -108 -29v73h5q63 0 65 86h-70zM50 0v162h157v-162q0 -89 -49 -130q-33 -26 -108 -29v73h5q63 0 65 86h-70z" />
<glyph unicode="&#x2022;" horiz-adv-x="667" d="M335 200q-57 0 -98 40.5t-41 97.5q0 58 41 98.5t100 40.5q55 0 95.5 -41t40.5 -97q0 -58 -40.5 -98.5t-97.5 -40.5z" />
<glyph unicode="&#x2026;" horiz-adv-x="765" d="M560 0v161h155v-161h-155zM305 0v161h155v-161h-155zM50 0v161h155v-161h-155z" />
<glyph unicode="&#x202f;" horiz-adv-x="181" />
<glyph unicode="&#x2039;" horiz-adv-x="385" d="M198 15l-165 224l165 225h140l-164 -225l164 -224h-140z" />
<glyph unicode="&#x203a;" horiz-adv-x="385" d="M47 15l164 225l-164 224h139l166 -224l-166 -225h-139z" />
<glyph unicode="&#x205f;" horiz-adv-x="227" />
<glyph unicode="&#x20ac;" horiz-adv-x="815" d="M19 218l38 89h72q-1 10 -1 27q0 19 1 29h-110l38 89h90q34 107 121.5 168.5t205.5 61.5q115 0 187 -69v52h111q-2 -58 -2 -63q-2 -39 -2 -78q0 -26 3 -94h-118q-17 56 -46 85q-48 46 -120 46q-109 0 -153 -109h247l-38 -89h-229q-1 -14 -1 -33q0 -11 1 -23h205l-38 -89 h-151q20 -52 63.5 -82.5t98.5 -30.5q68 0 113.5 48.5t55.5 131.5l134 -68q-31 -112 -113 -172t-204 -60q-124 0 -211 61.5t-122 171.5h-126z" />
<glyph unicode="&#x2122;" horiz-adv-x="938" d="M375 286v71l44 -1v242l-44 -1v71q21 0 25 -1h22h80q10 0 54 1l90 -226l90 226q52 -1 67 -1h73h22q4 1 25 1v-71l-44 1v-242l44 1v-71q-21 0 -25 1h-22h-99h-23q-3 -1 -25 -1v71l45 -1v226l-120 -295h-44l-119 296v-227l45 1v-71q-22 0 -25 1h-23h-66h-22q-4 -1 -25 -1z M73 286v71l55 -1v239h-46l1 -86h-75l1 109v50q40 -1 117 -1h116q72 0 111 1q-1 -50 -1 -74q0 -27 1 -85h-76l2 86h-46v-239l54 1v-71q-22 0 -25 1h-23h-117h-23q-4 -1 -26 -1z" />
</font>
</defs>
</svg>
